<svg width="25" height="21" viewBox="0 0 25 21" fill="none" xmlns="http://www.w3.org/2000/svg">
<g clip-path="url(#clip0_797_9435)">
<path d="M1.99284 1.96977C1.60968 1.96977 1.28125 1.63488 1.28125 1.22558C1.28125 0.834884 1.60968 0.5 1.99284 0.5H3.85393C3.87217 0.5 3.90866 0.5 3.92691 0.5C4.58376 0.518605 5.16763 0.648837 5.66027 0.965116C6.20765 1.31861 6.60906 1.85814 6.82801 2.65814C6.82801 2.67674 6.82801 2.69535 6.84626 2.71395L7.02872 3.45814H22.9939C23.3953 3.45814 23.7055 3.79302 23.7055 4.18372C23.7055 4.25814 23.6872 4.33256 23.669 4.40698L21.8079 12.0535C21.7349 12.3884 21.443 12.6116 21.1146 12.6116H9.43718C9.69262 13.5791 9.94806 14.1 10.2947 14.3419C10.7144 14.6209 11.4442 14.6395 12.6667 14.6209H12.685H20.9321C21.3335 14.6209 21.6437 14.9558 21.6437 15.3465C21.6437 15.7558 21.3153 16.0721 20.9321 16.0721H12.685C11.1705 16.0907 10.24 16.0535 9.49192 15.5512C8.72559 15.0302 8.32418 14.1372 7.92277 12.5186L5.47781 3.08605C5.47781 3.06744 5.47781 3.06744 5.45957 3.04884C5.35009 2.63953 5.16763 2.36047 4.91219 2.21163C4.65675 2.04419 4.31007 1.96977 3.90866 1.96977C3.89042 1.96977 3.87217 1.96977 3.85393 1.96977H1.99284ZM18.7973 16.9279C19.7644 16.9279 20.5489 17.7279 20.5489 18.714C20.5489 19.7 19.7644 20.5 18.7973 20.5C17.8303 20.5 17.0457 19.7 17.0457 18.714C17.0457 17.7279 17.8303 16.9279 18.7973 16.9279ZM11.1158 16.9279C12.0828 16.9279 12.8674 17.7279 12.8674 18.714C12.8674 19.7 12.0828 20.5 11.1158 20.5C10.1488 20.5 9.36419 19.7 9.36419 18.714C9.36419 17.7279 10.1488 16.9279 11.1158 16.9279ZM7.43013 4.9093L9.05401 11.1419H20.5672L22.0816 4.9093H7.43013Z" fill="white"/>
</g>
<defs>
<clipPath id="clip0_797_9435">
<rect width="24" height="20" fill="white" transform="translate(0.5 0.5)"/>
</clipPath>
</defs>
</svg>
