<svg width="194" height="33" viewBox="0 0 194 33" fill="none" xmlns="http://www.w3.org/2000/svg">
<rect x="1" y="1" width="29" height="31" rx="7" stroke="#3A58A4" stroke-width="2"/>
<path d="M17.752 8.944V25H15.544V11.296L11.8 13.576L10.84 12.016L15.808 8.944H17.752Z" fill="#272727"/>
<path d="M53.472 8.704C54.432 8.704 55.272 8.896 55.992 9.28C56.728 9.664 57.296 10.192 57.696 10.864C58.096 11.52 58.296 12.264 58.296 13.096C58.296 14.072 58.072 15.008 57.624 15.904C57.192 16.8 56.52 17.768 55.608 18.808C54.696 19.848 53.312 21.296 51.456 23.152H58.68L58.416 25H48.936V23.248C51.08 21.024 52.6 19.4 53.496 18.376C54.392 17.336 55.032 16.432 55.416 15.664C55.8 14.896 55.992 14.072 55.992 13.192C55.992 12.36 55.752 11.712 55.272 11.248C54.792 10.768 54.152 10.528 53.352 10.528C52.696 10.528 52.12 10.664 51.624 10.936C51.128 11.208 50.6 11.656 50.04 12.28L48.6 11.128C49.256 10.312 49.984 9.704 50.784 9.304C51.584 8.904 52.48 8.704 53.472 8.704Z" fill="#272727"/>
<path d="M92.4 8.704C93.392 8.704 94.24 8.888 94.944 9.256C95.664 9.624 96.208 10.12 96.576 10.744C96.96 11.368 97.152 12.048 97.152 12.784C97.152 13.76 96.864 14.568 96.288 15.208C95.728 15.832 94.976 16.256 94.032 16.48C95.104 16.576 95.976 16.96 96.648 17.632C97.32 18.304 97.656 19.216 97.656 20.368C97.656 21.296 97.432 22.136 96.984 22.888C96.536 23.64 95.896 24.232 95.064 24.664C94.232 25.08 93.272 25.288 92.184 25.288C91.208 25.288 90.312 25.112 89.496 24.76C88.68 24.392 87.968 23.848 87.36 23.128L88.68 21.904C89.208 22.448 89.744 22.848 90.288 23.104C90.848 23.36 91.456 23.488 92.112 23.488C93.12 23.488 93.912 23.208 94.488 22.648C95.064 22.072 95.352 21.304 95.352 20.344C95.352 19.288 95.08 18.544 94.536 18.112C93.992 17.68 93.2 17.464 92.16 17.464H90.96L91.224 15.76H92.04C92.872 15.76 93.56 15.512 94.104 15.016C94.664 14.52 94.944 13.824 94.944 12.928C94.944 12.176 94.704 11.584 94.224 11.152C93.744 10.704 93.096 10.48 92.28 10.48C91.656 10.48 91.08 10.592 90.552 10.816C90.04 11.04 89.512 11.408 88.968 11.92L87.816 10.6C89.176 9.336 90.704 8.704 92.4 8.704Z" fill="#272727"/>
<path d="M138.048 19.288V21.04H135.96V25H133.824V21.04H126.96V19.456L131.784 8.704L133.632 9.472L129.288 19.288H133.848L134.04 14.968H135.96V19.288H138.048Z" fill="#272727"/>
<path d="M168.856 21.952C169.336 21.952 169.736 22.112 170.056 22.432C170.376 22.752 170.536 23.144 170.536 23.608C170.536 24.072 170.376 24.472 170.056 24.808C169.736 25.128 169.336 25.288 168.856 25.288C168.392 25.288 168 25.128 167.68 24.808C167.36 24.472 167.2 24.072 167.2 23.608C167.2 23.144 167.36 22.752 167.68 22.432C168 22.112 168.392 21.952 168.856 21.952ZM174.622 21.952C175.102 21.952 175.502 22.112 175.822 22.432C176.142 22.752 176.302 23.144 176.302 23.608C176.302 24.072 176.142 24.472 175.822 24.808C175.502 25.128 175.102 25.288 174.622 25.288C174.158 25.288 173.766 25.128 173.446 24.808C173.126 24.472 172.966 24.072 172.966 23.608C172.966 23.144 173.126 22.752 173.446 22.432C173.766 22.112 174.158 21.952 174.622 21.952ZM180.387 21.952C180.867 21.952 181.267 22.112 181.587 22.432C181.907 22.752 182.067 23.144 182.067 23.608C182.067 24.072 181.907 24.472 181.587 24.808C181.267 25.128 180.867 25.288 180.387 25.288C179.923 25.288 179.531 25.128 179.211 24.808C178.891 24.472 178.731 24.072 178.731 23.608C178.731 23.144 178.891 22.752 179.211 22.432C179.531 22.112 179.923 21.952 180.387 21.952Z" fill="#272727"/>
</svg>
