<svg width="21" height="21" viewBox="0 0 21 21" fill="none" xmlns="http://www.w3.org/2000/svg">
<g clip-path="url(#clip0_797_9464)">
<path d="M13.3411 7.02226L17.5486 2.63867L18.305 3.39897L14.0811 7.56982L13.2753 8.36549L14.4062 8.42491L15.5598 8.48553L15.5608 8.48558C15.776 8.49643 15.9467 8.68221 15.9356 8.90469C15.9245 9.12686 15.7367 9.29423 15.5217 9.28351L12.3115 9.12032C12.1208 9.11088 11.9629 8.96225 11.9395 8.77332L11.5111 5.36281C11.4831 5.13853 11.6385 4.9405 11.8546 4.9122C12.0713 4.88516 12.2701 5.03676 12.2988 5.25938C12.2988 5.25922 12.2988 5.25954 12.2988 5.25938L12.4843 6.73825L12.6148 7.77899L13.3411 7.02226Z" fill="white"/>
<path d="M11.5111 5.36281L11.9395 8.77332C11.9629 8.96225 12.1208 9.11088 12.3115 9.12032L15.5217 9.28351C15.7367 9.29423 15.9245 9.12686 15.9356 8.90469C15.9467 8.68221 15.776 8.49643 15.5608 8.48558L15.5598 8.48553L14.4062 8.42491L13.2753 8.36549L14.0811 7.56982L18.305 3.39897L17.5486 2.63867L13.3411 7.02226L12.6148 7.77899L12.4843 6.73825L12.2988 5.25938M11.5111 5.36281C11.5111 5.36277 11.5111 5.36286 11.5111 5.36281ZM11.5111 5.36281C11.4831 5.13853 11.6385 4.9405 11.8546 4.9122C12.0713 4.88516 12.2701 5.03676 12.2988 5.25938M12.2988 5.25938C12.2988 5.25954 12.2988 5.25922 12.2988 5.25938Z" stroke="white"/>
<path d="M5.975 8.81C6.61364 9.96787 7.34971 11.0791 8.3069 12.0924C9.26409 13.1135 10.4563 14.0414 12.0011 14.8309C12.114 14.8884 12.2238 14.8884 12.3197 14.848C12.4681 14.7905 12.615 14.6708 12.765 14.5216C12.8779 14.4082 13.0217 14.2232 13.1702 14.0243C13.7624 13.2394 14.4985 12.2649 15.5361 12.7514C15.5593 12.7623 15.5763 12.7747 15.5995 12.7856L19.0571 14.7858C19.068 14.792 19.0803 14.8029 19.0912 14.8091C19.5473 15.1231 19.736 15.6096 19.7422 16.1613C19.7422 16.7224 19.5365 17.3534 19.235 17.8864C18.836 18.5905 18.2484 19.0552 17.5711 19.3645C16.9263 19.6613 16.2088 19.823 15.5191 19.9255C14.4366 20.0856 13.4222 19.9831 12.3831 19.6613C11.3671 19.3474 10.3465 18.8236 9.23007 18.132L9.14966 18.0792C8.63782 17.759 8.08268 17.414 7.54145 17.0068C5.55285 15.5008 3.53022 13.3233 2.21273 10.9283C1.10708 8.91568 0.502461 6.74447 0.831835 4.67584C1.0143 3.54128 1.49986 2.5093 2.34262 1.82856C3.07714 1.2333 4.0699 0.906922 5.35337 1.02038C5.50182 1.03126 5.63326 1.11829 5.7013 1.24418L7.92031 5.01466C8.24504 5.43895 8.28525 5.85703 8.10897 6.27666C7.96052 6.62014 7.66362 6.93564 7.25847 7.23404C7.1394 7.33662 6.99559 7.44075 6.84714 7.54799C6.35231 7.90856 5.78635 8.32664 5.97964 8.82088L5.975 8.81Z" fill="white"/>
</g>
<defs>
<clipPath id="clip0_797_9464">
<rect width="20" height="20" fill="white" transform="translate(0.5 0.5)"/>
</clipPath>
</defs>
</svg>
