<svg width="26" height="29" viewBox="0 0 26 29" fill="none" xmlns="http://www.w3.org/2000/svg">
<g clip-path="url(#clip0_797_9444)">
<mask id="mask0_797_9444" style="mask-type:luminance" maskUnits="userSpaceOnUse" x="0" y="1" width="26" height="27">
<path d="M25.5 1.16602H0.5V27.8327H25.5V1.16602Z" fill="white"/>
</mask>
<g mask="url(#mask0_797_9444)">
<path d="M5.97681 19.7788C5.58452 19.7788 5.27026 19.462 5.27026 19.0714C5.27026 18.6807 5.58886 18.3639 5.97681 18.3639H10.6344C11.0267 18.3639 11.3409 18.6807 11.3409 19.0714C11.3409 19.462 11.0245 19.7788 10.6344 19.7788H5.97681ZM13.7423 17.728C13.5342 17.728 13.3565 17.5501 13.3565 17.3331C13.3565 17.1247 13.5342 16.9468 13.7423 16.9468H14.7501C14.7588 16.9468 14.7804 16.9468 14.7891 16.9468C15.1446 16.9555 15.461 17.0249 15.7276 17.1942C16.0245 17.383 16.2412 17.6694 16.3604 18.0948C16.3604 18.1035 16.3604 18.1143 16.3713 18.1252L16.471 18.5201H25.1164C25.3331 18.5201 25.5022 18.6981 25.5022 18.9064C25.5022 18.9455 25.4913 18.9846 25.4827 19.0258L24.4749 23.0926C24.4358 23.2706 24.2776 23.3899 24.0999 23.3899H17.7757C17.9144 23.9043 18.0531 24.182 18.2395 24.3101C18.4671 24.4576 18.8615 24.4685 19.5247 24.4576H19.5334H24.0002C24.2169 24.4576 24.386 24.6356 24.386 24.8439C24.386 25.0609 24.2083 25.2302 24.0002 25.2302H19.5312C18.7098 25.2389 18.207 25.2194 17.8017 24.9524C17.3856 24.6747 17.1688 24.2016 16.9521 23.34L15.6279 18.3205C15.6279 18.3096 15.6279 18.3096 15.6192 18.301C15.5607 18.0839 15.461 17.9342 15.3223 17.8561C15.1836 17.7671 14.9972 17.728 14.7783 17.728C14.7674 17.728 14.7588 17.728 14.7479 17.728H13.7423ZM22.8429 25.6838C23.3674 25.6838 23.7922 26.1091 23.7922 26.6343C23.7922 27.1595 23.3674 27.5848 22.8429 27.5848C22.3184 27.5848 21.8936 27.1595 21.8936 26.6343C21.8936 26.1091 22.3184 25.6838 22.8429 25.6838ZM18.6816 25.6838C19.2061 25.6838 19.6309 26.1091 19.6309 26.6343C19.6309 27.1595 19.2061 27.5848 18.6816 27.5848C18.1571 27.5848 17.7323 27.1595 17.7323 26.6343C17.7323 26.1091 18.1593 25.6838 18.6816 25.6838ZM5.97681 8.20334C5.58452 8.20334 5.27026 7.88433 5.27026 7.49587C5.27026 7.10525 5.58886 6.78841 5.97681 6.78841H16.9261C17.3184 6.78841 17.6326 7.10525 17.6326 7.49587C17.6326 7.8865 17.3162 8.20334 16.9261 8.20334H5.97681ZM2.14066 0.916016H20.6994C21.1524 0.916016 21.5641 1.10048 21.8589 1.39562C22.1537 1.69075 22.3379 2.10308 22.3379 2.55664V15.5731H20.9291V2.56315C20.9291 2.50021 20.9031 2.44162 20.8619 2.39822C20.8186 2.35698 20.7601 2.33094 20.6972 2.33094H2.14066C2.07781 2.33094 2.01929 2.35698 1.97594 2.39822C1.9326 2.43945 1.91092 2.50021 1.91092 2.56315V23.9759C1.91092 24.0388 1.93693 24.0974 1.97811 24.1408C2.01929 24.1842 2.07781 24.2081 2.14283 24.2081H14.0739C14.2061 24.7267 14.3557 25.1803 14.5572 25.6122H2.14066C1.68769 25.6122 1.2759 25.4277 0.981144 25.1326C0.684222 24.8396 0.5 24.4273 0.5 23.9737V2.55881C0.5 2.10525 0.684222 1.69075 0.978977 1.39562C1.27373 1.10048 1.68769 0.916016 2.14066 0.916016ZM5.97681 13.9911C5.58452 13.9911 5.27026 13.6742 5.27026 13.2836C5.27026 12.893 5.58886 12.5761 5.97681 12.5761H16.9261C17.3184 12.5761 17.6326 12.893 17.6326 13.2836C17.6326 13.6742 17.3162 13.9911 16.9261 13.9911H5.97681Z" fill="white"/>
</g>
</g>
<defs>
<clipPath id="clip0_797_9444">
<rect width="25" height="28" fill="white" transform="translate(0.5 0.5)"/>
</clipPath>
</defs>
</svg>
