<svg width="624" height="568" viewBox="0 0 624 568" fill="none" xmlns="http://www.w3.org/2000/svg">
<g clip-path="url(#clip0_138_131)">
<path d="M596.653 210.615L534.72 76.4266C539.237 72.3299 542.853 67.3399 545.342 61.7732C547.828 56.2049 549.133 50.1819 549.172 44.0841C549.133 34.1876 545.73 24.5986 539.518 16.8942C533.307 9.18994 524.657 3.82894 514.993 1.69344C505.33 -0.442056 495.228 0.774775 486.348 5.14411C477.468 9.51327 470.34 16.7746 466.135 25.7336L153.03 105.328C145.307 98.6849 135.462 95.0232 125.275 95.0066C116.437 94.9466 107.792 97.5899 100.498 102.582C93.2033 107.573 87.61 114.675 84.465 122.935C81.321 131.195 80.7763 140.22 82.905 148.798C85.0333 157.377 89.7316 165.1 96.3733 170.932L32.8345 308.56L217.487 307.872L154.177 170.243C160.923 164.195 165.58 156.165 167.482 147.305L280.567 118.633V470.962H278.272L125.505 518.445C120.618 519.992 116.347 523.042 113.298 527.162C110.25 531.28 108.582 536.258 108.53 541.382V542.988C108.332 546.213 108.817 549.443 109.955 552.468C111.092 555.492 112.855 558.242 115.128 560.538C117.403 562.833 120.135 564.623 123.15 565.788C126.163 566.953 129.388 567.47 132.615 567.302H497.102C500.308 567.467 503.513 566.957 506.51 565.805C509.507 564.653 512.228 562.885 514.498 560.615C516.768 558.343 518.537 555.623 519.69 552.625C520.842 549.628 521.352 546.423 521.187 543.217V541.382C521.152 536.287 519.517 531.33 516.512 527.215C513.507 523.098 509.285 520.03 504.442 518.445L351.903 470.962H349.38V103.953L471.412 71.6099L475.998 76.4266L413.837 211.073C427.563 211.073 584.073 210.615 596.653 210.615ZM70.6823 308.56L145.5 354.5L179.11 308.033L70.6823 308.56ZM519.69 268.5L559.723 210.385H452.602L519.69 268.5Z" fill="#6F6F6F"/>
<path fill-rule="evenodd" clip-rule="evenodd" d="M4.82423 337.63C1.8954 327.018 0.330566 315.84 0.330566 304.297C12.7039 304.297 23.7339 304.297 33.6639 304.297C90.2966 304.298 111.157 304.298 141.418 304.297C159.783 304.297 181.61 304.297 216.997 304.297C226.958 304.297 237.995 304.297 250.33 304.297V304.342C250.327 315.868 248.762 327.032 245.837 337.63C231.25 390.483 182.823 429.297 125.33 429.297C67.8384 429.297 19.4117 390.483 4.82423 337.63Z" fill="#414141"/>
<path fill-rule="evenodd" clip-rule="evenodd" d="M378.253 242.562C375.325 231.95 373.76 220.772 373.76 209.228C386.133 209.228 397.163 209.228 407.093 209.228C463.727 209.23 484.587 209.23 514.848 209.228C533.212 209.228 555.04 209.228 590.427 209.228C600.388 209.228 611.423 209.228 623.76 209.228V209.273C623.755 220.8 622.192 231.963 619.267 242.562C604.678 295.415 556.252 334.228 498.76 334.228C441.267 334.228 392.84 295.415 378.253 242.562Z" fill="#414141"/>
</g>
<defs>
<clipPath id="clip0_138_131">
<rect width="624" height="568" fill="white"/>
</clipPath>
</defs>
</svg>
