<svg width="624" height="568" viewBox="0 0 624 568" fill="none" xmlns="http://www.w3.org/2000/svg">
<g clip-path="url(#clip0_357_276)">
<mask id="mask0_357_276" style="mask-type:luminance" maskUnits="userSpaceOnUse" x="-1" y="-4" width="550" height="501">
<path d="M548.475 -3.91943H-1V496.243H548.475V-3.91943Z" fill="white"/>
</mask>
<g mask="url(#mask0_357_276)">
<path d="M524.394 181.541L469.857 63.3794C473.835 59.772 477.019 55.378 479.211 50.4761C481.4 45.5728 482.549 40.2692 482.583 34.8997C482.549 26.1851 479.552 17.7413 474.082 10.9571C468.613 4.17296 460.996 -0.547764 452.486 -2.42822C443.977 -4.30867 435.082 -3.23716 427.262 0.610333C419.443 4.45768 413.166 10.8518 409.464 18.7408L133.753 88.8291C126.953 82.9794 118.283 79.755 109.313 79.7404C101.531 79.6876 93.918 82.0152 87.4952 86.4111C81.0717 90.806 76.1464 97.0598 73.377 104.333C70.6085 111.607 70.1289 119.554 72.0033 127.107C73.8774 134.662 78.0146 141.462 83.8631 146.598L27.9128 267.789L190.512 267.183L134.763 145.991C140.704 140.666 144.804 133.595 146.479 125.793L246.058 100.545V410.795H244.037L109.516 452.607C105.212 453.969 101.451 456.655 98.7664 460.283C96.0825 463.909 94.6137 468.292 94.5679 472.804V474.219C94.3935 477.058 94.8206 479.903 95.8227 482.566C96.8239 485.229 98.3764 487.651 100.378 489.673C102.381 491.694 104.787 493.27 107.442 494.296C110.095 495.321 112.935 495.777 115.776 495.629H436.732C439.555 495.774 442.377 495.325 445.016 494.311C447.656 493.296 450.052 491.739 452.05 489.74C454.049 487.74 455.607 485.345 456.622 482.705C457.637 480.066 458.086 477.243 457.941 474.42V472.804C457.91 468.318 456.47 463.953 453.824 460.329C451.178 456.704 447.46 454.003 443.195 452.607L308.874 410.795H306.653V87.6183L414.11 59.138L418.149 63.3794L363.412 181.945C375.498 181.945 513.316 181.541 524.394 181.541ZM61.2404 267.789L109.313 172.194L156.718 267.325L61.2404 267.789ZM442.806 87.6183L491.874 181.339H397.547L442.806 87.6183Z" fill="#4267C2"/>
<path fill-rule="evenodd" clip-rule="evenodd" d="M3.24799 293.387C0.668959 284.042 -0.708984 274.199 -0.708984 264.035C10.1866 264.035 19.8992 264.035 28.6433 264.035C78.5123 264.036 96.8813 264.036 123.528 264.035C139.7 264.035 158.92 264.035 190.081 264.035C198.852 264.035 208.571 264.035 219.433 264.035V264.074C219.43 274.224 218.052 284.055 215.476 293.387C202.631 339.928 159.988 374.106 109.362 374.106C58.7363 374.106 16.0933 339.928 3.24799 293.387Z" fill="#444444"/>
<path fill-rule="evenodd" clip-rule="evenodd" d="M332.077 209.673C329.499 200.328 328.121 190.485 328.121 180.32C339.016 180.32 348.729 180.32 357.473 180.32C407.343 180.322 425.712 180.322 452.359 180.32C468.529 180.32 487.751 180.32 518.911 180.32C527.683 180.32 537.4 180.32 548.263 180.32V180.36C548.259 190.51 546.882 200.34 544.307 209.673C531.46 256.214 488.818 290.391 438.192 290.391C387.566 290.391 344.922 256.214 332.077 209.673Z" fill="#444444"/>
</g>
<circle cx="464.193" cy="413.112" r="159.807" fill="white"/>
<path d="M569.271 437.193L360.208 437.193L360.208 389.031L569.271 389.032L569.271 437.193Z" fill="#444444"/>
</g>
<defs>
<clipPath id="clip0_357_276">
<rect width="624" height="568" fill="white"/>
</clipPath>
</defs>
</svg>
