<svg width="624" height="568" viewBox="0 0 624 568" fill="none" xmlns="http://www.w3.org/2000/svg">
<g clip-path="url(#clip0_357_272)">
<path d="M524.394 179.644L469.817 61.6805C473.797 58.0792 476.984 53.6925 479.177 48.7989C481.368 43.9038 482.518 38.609 482.552 33.2485C482.518 24.5486 479.519 16.119 474.045 9.34611C468.571 2.57333 460.949 -2.13948 452.433 -4.01678C443.917 -5.89407 435.015 -4.82437 427.19 -0.983324C419.364 2.85757 413.083 9.24098 409.377 17.1168L133.46 87.0874C126.654 81.2476 117.978 78.0286 109.001 78.014C101.213 77.9613 93.5946 80.285 87.1669 84.6734C80.7386 89.061 75.8096 95.3043 73.0382 102.566C70.2676 109.827 69.7876 117.761 71.6634 125.302C73.539 132.843 77.6793 139.632 83.5321 144.759L27.5398 265.747L190.261 265.142L134.471 144.154C140.415 138.837 144.519 131.778 146.195 123.989L245.849 98.7837V408.513H243.827L109.204 450.255C104.897 451.615 101.134 454.296 98.4467 457.918C95.7607 461.538 94.2908 465.914 94.245 470.419V471.83C94.0705 474.666 94.4979 477.505 95.5007 480.164C96.5027 482.823 98.0563 485.24 100.059 487.259C102.064 489.276 104.472 490.85 107.129 491.874C109.784 492.898 112.626 493.352 115.469 493.205H436.666C439.492 493.35 442.316 492.901 444.957 491.889C447.598 490.876 449.996 489.322 451.996 487.326C453.997 485.329 455.556 482.938 456.572 480.302C457.587 477.668 458.036 474.85 457.891 472.032V470.419C457.86 465.94 456.419 461.582 453.771 457.965C451.123 454.345 447.403 451.648 443.135 450.255L308.713 408.513H306.489V85.8787L414.028 57.4462L418.069 61.6805L363.291 180.047C375.387 180.047 513.308 179.644 524.394 179.644ZM60.8924 265.747L109.001 161.698L156.442 265.284L60.8924 265.747ZM444.954 78.6191L491.85 179.442H397.452L444.954 78.6191Z" fill="#2D2D2D"/>
<path fill-rule="evenodd" clip-rule="evenodd" d="M109.268 342.835C143.554 342.835 172.855 321.246 184.619 290.771C156.5 290.771 138.548 290.771 123.287 290.771C97.6895 290.773 79.6568 290.773 33.9176 290.771C45.6809 321.246 74.983 342.835 109.268 342.835ZM2.96406 290.771C0.380411 281.3 -1 271.323 -1 261.021C9.91508 261.021 19.6451 261.021 28.4048 261.021C78.3631 261.022 96.765 261.022 123.46 261.021C139.66 261.021 158.915 261.021 190.131 261.021C198.918 261.021 208.655 261.021 219.536 261.021V261.061C219.533 271.348 218.153 281.312 215.572 290.771C202.704 337.944 159.985 372.586 109.268 372.586C58.5517 372.586 15.8323 337.944 2.96406 290.771Z" fill="#272727"/>
<path fill-rule="evenodd" clip-rule="evenodd" d="M438.774 259.205C473.06 259.205 502.362 238.119 514.124 208.352C486.006 208.352 468.054 208.352 452.791 208.352C427.194 208.353 409.162 208.353 363.423 208.352C375.187 238.119 404.488 259.205 438.774 259.205ZM332.47 208.352C329.887 199.101 328.506 189.356 328.506 179.293C339.421 179.293 349.151 179.293 357.911 179.293C407.87 179.295 426.272 179.295 452.966 179.293C469.166 179.293 488.421 179.293 519.638 179.293C528.425 179.293 538.159 179.293 549.042 179.293V179.332C549.038 189.381 547.659 199.112 545.079 208.352C532.209 254.428 489.49 288.263 438.774 288.263C388.057 288.263 345.338 254.428 332.47 208.352Z" fill="#272727"/>
<circle cx="464.193" cy="412.112" r="159.807" fill="white"/>
<path d="M488.419 276.623L488.419 546.486L439.844 546.486L439.844 276.623L488.419 276.623Z" fill="#265AD9"/>
<path d="M598.523 435.303L328.661 435.303L328.661 386.727L598.523 386.727L598.523 435.303Z" fill="#265AD9"/>
</g>
<defs>
<clipPath id="clip0_357_272">
<rect width="624" height="568" fill="white"/>
</clipPath>
</defs>
</svg>
