<svg width="624" height="568" viewBox="0 0 624 568" fill="none" xmlns="http://www.w3.org/2000/svg">
<path d="M596.653 210.615L534.72 76.4267C539.237 72.33 542.853 67.34 545.342 61.7733C547.828 56.205 549.133 50.182 549.172 44.0842C549.133 34.1877 545.73 24.5987 539.518 16.8943C533.307 9.19 524.657 3.829 514.993 1.6935C505.33 -0.441996 495.228 0.774835 486.348 5.14417C477.468 9.51333 470.34 16.7747 466.135 25.7337L153.03 105.328C145.307 98.685 135.462 95.0233 125.275 95.0067C116.437 94.9467 107.792 97.59 100.498 102.582C93.2033 107.573 87.61 114.675 84.465 122.935C81.321 131.195 80.7763 140.22 82.905 148.798C85.0333 157.377 89.7316 165.1 96.3733 170.932L32.8345 308.56L217.487 307.872L154.177 170.243C160.923 164.195 165.58 156.165 167.482 147.305L280.567 118.633V470.962H278.272L125.505 518.445C120.618 519.992 116.347 523.042 113.298 527.162C110.25 531.28 108.582 536.258 108.53 541.382V542.988C108.332 546.213 108.817 549.443 109.955 552.468C111.092 555.492 112.855 558.242 115.128 560.538C117.403 562.833 120.135 564.623 123.15 565.788C126.163 566.953 129.388 567.47 132.615 567.302H497.102C500.308 567.467 503.513 566.957 506.51 565.805C509.507 564.653 512.228 562.885 514.498 560.615C516.768 558.343 518.537 555.623 519.69 552.625C520.842 549.628 521.352 546.423 521.187 543.217V541.382C521.152 536.287 519.517 531.33 516.512 527.215C513.507 523.098 509.285 520.03 504.442 518.445L351.903 470.962H349.38V103.953L471.412 71.61L475.998 76.4267L413.837 211.073C427.563 211.073 584.073 210.615 596.653 210.615ZM70.6823 308.56L125.275 190.2L179.11 308.033L70.6823 308.56ZM506.507 95.695L559.723 210.385H452.602L506.507 95.695Z" fill="#6F6F6F"/>
<path fill-rule="evenodd" clip-rule="evenodd" d="M125.33 395.963C164.197 395.963 197.413 371.775 210.748 337.63C178.873 337.63 158.522 337.63 141.222 337.63C112.205 337.632 91.7632 337.632 39.9132 337.63C53.2481 371.775 86.4649 395.963 125.33 395.963ZM4.82423 337.63C1.8954 327.018 0.330566 315.84 0.330566 304.297C12.7039 304.297 23.7339 304.297 33.6639 304.297C90.2966 304.298 111.157 304.298 141.418 304.297C159.783 304.297 181.61 304.297 216.997 304.297C226.958 304.297 237.995 304.297 250.33 304.297V304.342C250.327 315.868 248.762 327.032 245.837 337.63C231.25 390.483 182.823 429.297 125.33 429.297C67.8384 429.297 19.4117 390.483 4.82423 337.63Z" fill="#6F6F6F"/>
<path fill-rule="evenodd" clip-rule="evenodd" d="M498.76 300.895C537.627 300.895 570.843 276.707 584.177 242.562C552.302 242.562 531.952 242.562 514.65 242.562C485.633 242.563 465.192 242.563 413.342 242.562C426.677 276.707 459.893 300.895 498.76 300.895ZM378.253 242.562C375.325 231.95 373.76 220.772 373.76 209.228C386.133 209.228 397.163 209.228 407.093 209.228C463.727 209.23 484.587 209.23 514.848 209.228C533.212 209.228 555.04 209.228 590.427 209.228C600.388 209.228 611.423 209.228 623.76 209.228V209.273C623.755 220.8 622.192 231.963 619.267 242.562C604.678 295.415 556.252 334.228 498.76 334.228C441.267 334.228 392.84 295.415 378.253 242.562Z" fill="#6F6F6F"/>
</svg>
