<svg width="142" height="68" viewBox="0 0 142 68" fill="none" xmlns="http://www.w3.org/2000/svg">
<path d="M77.925 23.8984H80.5794V19.5699H77.925V23.8984ZM85.0713 19.1577V24.3106L82.0086 27.4024H77.925V30.4942H73.4331V16.0659H82.0086L85.0713 19.1577ZM86.0897 27.8146V21.6311L88.744 18.9516H96.9111V25.5473H90.5816V26.784H96.5028V30.4942H88.744L86.0897 27.8146ZM90.5816 23.6923L93.2359 23.4862V22.2494H90.5816V23.6923ZM98.337 17.0965L102.829 16.0659V19.3638H105.892V23.0739H102.829V26.784H105.892V30.4942H101.196L98.337 27.6085V17.0965ZM107.111 30.4942V21.8372L109.969 18.9516H115.482V23.0739H111.603V30.4942H107.111ZM116.497 27.8146V21.6311L119.151 18.9516H124.868L127.523 21.6311V27.8146L124.868 30.4942H119.151L116.497 27.8146ZM120.989 26.9902H123.031V22.4556H120.989V26.9902ZM128.944 30.4942V16.0659H133.436V30.4942H128.944Z" fill="#3A62C8"/>
<path d="M73.4331 57.1177V42.6895H78.7418L80.5794 47.7187L82.417 42.6895H87.7256V57.1177H83.3154V48.5226L81.3961 53.4076H79.7627L77.8434 48.5226V57.1177H73.4331ZM89.1609 54.4382V48.2546L91.8152 45.5751H97.5322L100.187 48.2546V54.4382L97.5322 57.1177H91.8152L89.1609 54.4382ZM93.6528 53.6137H95.6946V49.0791H93.6528V53.6137ZM101.607 57.1177V42.6895H106.099V45.5751H109.774L112.837 48.6669V54.0259L109.774 57.1177H101.607ZM106.099 53.4076H108.345V49.2852H106.099V53.4076ZM114.269 57.1177V45.5751H118.761V57.1177H114.269ZM114.269 44.7506V42.0711H118.761V44.7506H114.269ZM120.39 57.1177V42.6895H124.882V57.1177H120.39ZM126.308 54.4382V48.2546L128.962 45.5751H137.129V52.1709H130.8V53.4076H136.721V57.1177H128.962L126.308 54.4382ZM130.8 50.3158L133.454 50.1097V48.873H130.8V50.3158Z" fill="white"/>
<path d="M73.3972 34.1765H141.329" stroke="white" stroke-width="4"/>
<path d="M73.3972 34.1765H141.329" stroke="url(#paint0_linear_580_5996)" stroke-width="4"/>
<path d="M0.781006 33.9235C0.781006 52.4251 15.6384 67.4235 33.9659 67.4235C52.2192 67.4235 67.0304 52.5463 67.1501 34.1482C64.2698 36.6323 61.4402 40.6863 56.4349 41.9496C50.3978 43.4732 47.1022 38.405 40.8794 38.46C34.0361 38.5205 24.4754 45.8413 17.7191 44.7413C7.00318 42.9965 0.781006 33.9235 0.781006 33.9235Z" fill="#121212"/>
<path d="M33.9659 0.423523C15.6384 0.423523 0.781006 15.422 0.781006 33.9235C0.781006 33.9235 7.00318 42.9965 17.7191 44.7413C24.4754 45.8413 34.0361 38.5205 40.8794 38.46C47.1022 38.405 50.3977 43.4732 56.4349 41.9496C61.4402 40.6863 64.2698 36.6323 67.1501 34.1482C67.1506 34.0734 67.1509 33.9985 67.1509 33.9235C67.1509 15.422 52.2935 0.423523 33.9659 0.423523Z" fill="url(#paint1_linear_580_5996)"/>
<path d="M17.8559 35.5631L14.9287 29.5884L12.0017 35.5631C11.8086 35.9528 11.7122 36.4073 11.7122 36.8945C11.7122 38.6804 13.1596 40.1091 14.8966 40.1091C16.6657 40.1091 18.081 38.6804 18.081 36.8945C18.1132 36.4073 18.0167 35.9528 17.8559 35.5631Z" fill="#121212"/>
<path d="M13.0311 38.518C13.417 39.0375 13.9317 39.3298 14.1569 39.1674C14.382 39.005 14.2534 38.4206 13.8673 37.901C13.4814 37.3815 12.9667 37.0893 12.7415 37.2516C12.4842 37.414 12.6451 37.9985 13.0311 38.518Z" fill="white"/>
<path fill-rule="evenodd" clip-rule="evenodd" d="M14.3791 25.8233C13.6878 25.9561 12.8572 24.1053 13.5114 23.8016C23.8211 17.7318 24.8604 22.7575 35.068 25.1588L35.1979 24.7839C35.5227 23.8633 35.5088 24.148 36.5389 24.4422L37.0353 24.5846C38.7334 25.0686 37.9818 24.9311 39.3552 24.0341C42.4546 22.0124 47.1454 22.4823 50.2773 24.5466C52.9915 26.3357 53.2004 27.8354 53.8452 30.7398C54.4392 33.4021 62.9208 41.223 68.3865 46.4528L66.3643 49.534L62.2202 45.3755L58.5454 49.509C57.5525 50.6242 56.9029 51.8107 55.2697 51.692C54.1655 51.6114 51.2887 49.9172 50.1659 49.3477L45.4658 46.9606C44.6214 46.1395 44.2224 45.0718 44.3058 43.7287C43.0763 43.8901 42.0184 43.5911 41.1183 42.8556C37.8797 40.2122 39.5732 38.4325 39.1232 35.5377C39.0907 35.3384 39.0536 35.1343 39.0025 34.935C38.2694 31.8977 36.6455 30.9343 34.2746 29.8239C33.523 29.4727 33.6018 29.6578 33.8895 28.8605L34.0055 28.5378C25.1295 26.1792 23.2133 21.4952 14.3791 25.8233ZM47.5027 40.6868C47.6697 40.122 47.6001 39.4813 47.085 38.9736L49.0755 37.2699C49.8504 36.7051 50.7181 36.4441 51.697 36.5675C54.3696 36.9044 58.3691 41.6217 60.4292 43.5579L56.4436 48.1707C54.119 44.7491 51.4929 40.2739 47.5027 40.6868ZM46.7464 42.96C46.9738 42.7939 47.2429 42.7179 47.5583 42.7322L49.4839 46.3958C48.5374 46.0826 44.7095 44.4643 46.7464 42.96ZM49.2008 42.3525C50.5835 43.0454 52.5833 45.4847 54.5552 48.0758C54.9217 48.3795 54.5087 49.267 53.5854 48.5362L52.3745 47.8765C50.1334 46.5809 49.8782 45.3565 49.2008 42.3525Z" fill="#363636"/>
<path fill-rule="evenodd" clip-rule="evenodd" d="M14.87 24.2468C14.1787 24.3798 13.3482 22.5289 14.0024 22.2253C24.312 16.1554 25.3514 21.1812 35.5589 23.5825L35.6888 23.2076C36.0136 22.2869 35.9998 22.5716 37.0298 22.8659L37.5262 23.0082C39.2243 23.4923 38.4727 23.3547 39.8461 22.4577C42.9455 20.4361 47.6363 20.9059 50.7682 22.9703C53.4825 24.7594 53.6913 26.2591 54.3362 29.1634C54.9301 31.8258 63.4116 39.6467 68.8774 44.8765L67.0585 48.1151L62.7111 43.7992L59.0363 47.9327C58.0434 49.0479 57.3938 50.2343 55.7606 50.1156C54.6564 50.035 51.7796 48.3408 50.6568 47.7713L45.9567 45.3842C45.1123 44.5632 44.7133 43.4954 44.7968 42.1524C43.5672 42.3137 42.5093 42.0148 41.6092 41.2792C38.3706 38.6358 40.0642 36.8562 39.6141 33.9613C39.5816 33.762 39.5446 33.5579 39.4935 33.3586C38.7604 30.3214 37.1364 29.358 34.7655 28.2475C34.0139 27.8963 34.0927 28.0814 34.3804 27.2842L34.4964 26.9614C25.6205 24.6028 23.7043 19.9188 14.87 24.2468ZM47.9936 39.1104C48.1607 38.5457 48.0911 37.905 47.576 37.3972L49.5665 35.6935C50.3414 35.1287 51.209 34.8677 52.188 34.9912C54.8605 35.3281 58.8601 40.0453 60.9201 41.9815L56.9345 46.5944C54.61 43.1727 51.9838 38.6975 47.9936 39.1104ZM47.2373 41.3836C47.4647 41.2175 47.7338 41.1415 48.0493 41.1558L49.9748 44.8194C49.0282 44.5062 45.2004 42.8879 47.2373 41.3836ZM49.6917 40.7761C51.0745 41.469 53.0742 43.9083 55.0461 46.4995C55.4127 46.8032 54.9997 47.6907 54.0764 46.9598L52.8654 46.3001C50.6243 45.0045 50.3692 43.7802 49.6917 40.7761Z" fill="white"/>
<defs>
<linearGradient id="paint0_linear_580_5996" x1="-nan" y1="-nan" x2="-nan" y2="-nan" gradientUnits="userSpaceOnUse">
<stop stop-color="#3A58A4"/>
<stop offset="1" stop-color="#DFE8FF"/>
</linearGradient>
<linearGradient id="paint1_linear_580_5996" x1="6.10698" y1="26.9937" x2="57.6624" y2="28.8872" gradientUnits="userSpaceOnUse">
<stop stop-color="#3A58A4"/>
<stop offset="1" stop-color="#4E76DB"/>
</linearGradient>
</defs>
</svg>
