<svg width="72" height="72" viewBox="0 0 72 72" fill="none" xmlns="http://www.w3.org/2000/svg">
<mask id="mask0_1378_10149" style="mask-type:alpha" maskUnits="userSpaceOnUse" x="0" y="0" width="72" height="72">
<rect width="72" height="72" rx="16" fill="#D9D9D9"/>
</mask>
<g mask="url(#mask0_1378_10149)">
<path d="M62 70.4831H11.0018C8.51648 70.4831 6.50176 68.4684 6.50176 65.9831V9.26138L6.50177 8.52736C6.50177 7.45902 6.50177 7.25351 6.50167 7.00679C6.50062 4.51916 8.51863 2.50282 11.0063 2.50561L62.005 2.56273C64.4883 2.56551 66.5 4.57941 66.5 7.06272V65.9831C66.5 68.4684 64.4853 70.4831 62 70.4831Z" fill="white" stroke="white"/>
<path d="M16.7638 50.9419L5.99959 50.9419L5.99959 56.1156L16.7638 56.1156L28.6973 56.1156L28.6973 50.9419L16.7638 50.9419Z" fill="#272723"/>
<path d="M45.5637 7.67441H15.0037C13.8578 7.67441 13.0938 8.43841 13.0938 9.58441V28.6844C13.0938 29.8304 13.8578 30.5944 15.0037 30.5944H45.5637C46.7097 30.5944 47.4737 29.8304 47.4737 28.6844V9.58441C47.4737 8.43841 46.7097 7.67441 45.5637 7.67441Z" fill="#3F63BD"/>
<path d="M16.9152 18.7524L14.2412 16.0784C14.8142 15.5054 15.1962 15.1234 15.7692 14.7414L18.2522 17.7974C17.6792 17.9884 17.2972 18.3704 16.9152 18.7524ZM43.6552 18.7524C43.2732 18.3704 42.8912 17.9884 42.3182 17.6064L44.6102 14.5504C45.1832 14.9324 45.7562 15.5054 46.1382 15.8874L43.6552 18.7524ZM22.6452 14.9324L21.1172 11.4944C21.6902 11.3034 22.4542 10.9214 23.0272 10.7304L24.1732 14.3594C23.6002 14.5504 23.2182 14.7414 22.6452 14.9324ZM37.7342 14.9324L36.0152 14.3594L37.1612 10.7304C37.7342 10.9214 38.4982 11.1124 39.0712 11.4944L37.7342 14.9324ZM29.3302 13.4044L29.1392 9.58438H31.2402L31.0492 13.4044H29.3302ZM34.1052 30.5944H26.4652C26.4652 28.4934 28.1842 26.7744 30.2852 26.7744C32.3862 26.7744 34.1052 28.4934 34.1052 30.5944Z" fill="white"/>
<path d="M32.1938 30.5944L41.1708 19.7074L27.8008 30.5944H32.1938Z" fill="white"/>
<path fill-rule="evenodd" clip-rule="evenodd" d="M66.9996 51.6512L62.6579 51.6092H60.857L59.0639 48.5687C58.9475 48.3634 58.7301 48.2449 58.4972 48.2449H55.8502V46.2232C55.8502 45.8521 55.5553 45.552 55.1904 45.552H50.5563V42.859H52.5434C52.9083 42.859 53.2033 42.5589 53.2033 42.1877V38.1364C53.2033 37.7652 52.9083 37.4651 52.5434 37.4651H40.6126C40.2478 37.4651 39.9528 37.7652 39.9528 38.1364V42.1798C39.9528 42.551 40.2478 42.8511 40.6126 42.8511H42.5998V45.5441H37.298C37.1195 45.5441 36.9565 45.6151 36.8323 45.7415C36.7081 45.8678 36.6382 46.0416 36.6382 46.2153V48.237H32.0041C31.6392 48.237 31.3443 48.5371 31.3443 48.9083V52.9517H30.0169L30.0169 50.9379C30.0169 50.5667 29.7219 50.2666 29.3571 50.2666C28.9922 50.2666 28.6973 50.5667 28.6973 50.9379L28.6973 56.3318C28.6973 56.7029 28.9922 57.003 29.3571 57.003C29.7219 57.003 30.0169 56.7029 30.0169 56.3318V54.3101H31.3443V59.7039C31.3443 60.0751 31.6392 60.3752 32.0041 60.3752H36.9487L39.4017 64.1185C39.5259 64.308 39.7354 64.4186 39.9528 64.4186H58.4972C58.7456 64.4186 58.9785 64.2765 59.0872 64.0474L60.8881 60.3752H62.72L62.7438 60.4237V57.3256H66.9996L66.9996 51.6512Z" fill="#272723"/>
</g>
</svg>
