<svg width="72" height="72" viewBox="0 0 72 72" fill="none" xmlns="http://www.w3.org/2000/svg">
<mask id="mask0_1379_9083" style="mask-type:alpha" maskUnits="userSpaceOnUse" x="0" y="0" width="72" height="72">
<rect width="72" height="72" rx="16" fill="#D9D9D9"/>
</mask>
<g mask="url(#mask0_1379_9083)">
<path d="M60 70.1744H11.0017C8.51642 70.1744 6.50171 68.1597 6.50171 65.6744V10.9763L6.50166 8.95926C6.5011 6.47155 8.51863 4.45585 11.0063 4.45864L60.005 4.51352C62.4883 4.5163 64.5 6.5302 64.5 9.01352V65.6744C64.5 68.1597 62.4853 70.1744 60 70.1744Z" fill="#FFFFFD" stroke="#FFFFFD"/>
<path d="M16.4109 51.2902L5.99964 51.2902L5.99964 56.2943L16.4109 56.2943L27.9531 56.2943L27.9531 51.2902L16.4109 51.2902Z" fill="#272727"/>
<path d="M44.2667 9.44141H14.7087C13.6003 9.44141 12.8613 10.1804 12.8613 11.2888V29.7625C12.8613 30.871 13.6003 31.6099 14.7087 31.6099H44.2667C45.3751 31.6099 46.1141 30.871 46.1141 29.7625V11.2888C46.1141 10.1804 45.3751 9.44141 44.2667 9.44141Z" fill="#272727"/>
<path d="M16.557 20.1562L13.9707 17.5698C14.5249 17.0156 14.8944 16.6461 15.4486 16.2767L17.8502 19.2325C17.296 19.4172 16.9265 19.7867 16.557 20.1562ZM42.4203 20.1562C42.0508 19.7867 41.6813 19.4172 41.1271 19.0477L43.344 16.0919C43.8982 16.4614 44.4524 17.0156 44.8219 17.3851L42.4203 20.1562ZM22.0992 16.4614L20.6213 13.1361C21.1755 12.9514 21.9144 12.5819 22.4686 12.3972L23.5771 15.9072C23.0228 16.0919 22.6534 16.2767 22.0992 16.4614ZM36.6934 16.4614L35.0308 15.9072L36.1392 12.3972C36.6934 12.5819 37.4324 12.7667 37.9866 13.1361L36.6934 16.4614ZM28.565 14.9835L28.3802 11.2888H30.4123L30.2276 14.9835H28.565ZM33.1834 31.6099H25.7939C25.7939 29.5778 27.4565 27.9151 29.4887 27.9151C31.5208 27.9151 33.1834 29.5778 33.1834 31.6099Z" fill="white"/>
<path d="M31.3349 31.6099L40.0176 21.0799L27.0859 31.6099H31.3349Z" fill="white"/>
<path fill-rule="evenodd" clip-rule="evenodd" d="M64.9996 51.9763L60.8003 51.9357H59.0584L57.3241 48.9949C57.2115 48.7963 57.0013 48.6817 56.776 48.6817H54.2158V46.7263C54.2158 46.3673 53.9305 46.077 53.5777 46.077H49.0954V43.4723H51.0175C51.3703 43.4723 51.6556 43.1821 51.6556 42.8231V38.9046C51.6556 38.5456 51.3703 38.2553 51.0175 38.2553H39.4778C39.1249 38.2553 38.8396 38.5456 38.8396 38.9046V42.8154C38.8396 43.1745 39.1249 43.4647 39.4778 43.4647H41.3998V46.0694H36.2719C36.0992 46.0694 35.9416 46.1381 35.8214 46.2604C35.7013 46.3826 35.6337 46.5506 35.6337 46.7187V48.6741H31.1515C30.7986 48.6741 30.5133 48.9643 30.5133 49.3233V53.2342H29.2295V51.2864C29.2295 50.9274 28.9442 50.6371 28.5913 50.6371C28.2384 50.6371 27.9531 50.9274 27.9531 51.2864L27.9531 56.5034C27.9531 56.8624 28.2384 57.1527 28.5913 57.1527C28.9442 57.1527 29.2295 56.8624 29.2295 56.5034V54.548H30.5133L30.5133 59.765C30.5133 60.124 30.7986 60.4143 31.1515 60.4143H35.934L38.3066 64.0348C38.4267 64.2182 38.6294 64.3251 38.8396 64.3251H56.776C57.0163 64.3251 57.2415 64.1876 57.3466 63.9661L59.0885 60.4143H60.8603L60.8834 60.4612V57.4646H64.9996L64.9996 51.9763Z" fill="#272727"/>
</g>
</svg>
