<svg id="gas_constructor_button_svg" width="80" height="80" viewBox="0 0 80 80" fill="none" xmlns="http://www.w3.org/2000/svg">
                            <path d="M7.46045 27.9622H27.9622V7.46045H7.46045V27.9622ZM11.1908 11.1908H24.2318V24.2318H11.1908V11.1908Z" fill="white"></path>
                            <path d="M0 35.423H35.423V0H0V35.423ZM3.73038 3.73038H31.6926V31.6926H3.73038V3.73038Z" fill="white"></path>
                            <path d="M44.5771 0V35.423H80.0001V0H44.5771ZM76.2698 31.6926H48.3075V3.73038H76.2698V31.6926Z" fill="white"></path>
                            <path d="M72.5394 7.46045H52.0376V27.9622H72.5394V7.46045ZM68.809 24.2322H55.768V11.1911H68.809V24.2322Z" fill="white"></path>
                            <path d="M7.46045 72.5395H27.9622V52.0359H7.46045V72.5395ZM11.1908 55.766H24.2318V68.8088H11.1908V55.766Z" fill="white"></path>
                            <path d="M0 80H35.423V44.5751H0V80ZM3.73038 48.3055H31.6926V76.2696H3.73038V48.3055Z" fill="white"></path>
                            <path d="M52.0376 72.5395H72.5394V52.0359H52.0376V72.5395ZM55.7677 55.766H68.8087V68.8088H55.7677V55.766Z" fill="white"></path>
                            <path d="M44.5771 80H80.0001V44.5751H44.5771V80ZM48.3075 48.3055H76.2698V76.2696H48.3075V48.3055Z" fill="white"></path>
             </svg>