<svg width="26" height="17" viewBox="0 0 26 17" fill="none" xmlns="http://www.w3.org/2000/svg">
<path d="M21.2561 12.3712C20.6208 12.3712 20.0173 12.6087 19.562 13.0383C19.1067 13.4729 18.8525 14.0389 18.8525 14.6453C18.8525 15.2518 19.1014 15.8178 19.562 16.2524C20.0226 16.6819 20.6208 16.9194 21.2561 16.9194C22.5585 16.9194 23.6174 15.8986 23.6174 14.6453C23.6174 13.392 22.5585 12.3712 21.2561 12.3712ZM21.2561 15.9087C20.5255 15.9087 19.9114 15.3326 19.9114 14.6453C19.9114 13.958 20.5255 13.3819 21.2561 13.3819C21.9761 13.3819 22.5585 13.9479 22.5585 14.6453C22.5585 15.3427 21.9761 15.9087 21.2561 15.9087Z" fill=" #ff5d5d"/>
<path d="M21.8706 4.79582C21.7753 4.70991 21.6482 4.66443 21.5159 4.66443H18.7999C18.5087 4.66443 18.2705 4.89184 18.2705 5.16979V9.31373C18.2705 9.59168 18.5087 9.81909 18.7999 9.81909H23.1094C23.4006 9.81909 23.6389 9.59168 23.6389 9.31373V6.53931C23.6389 6.39781 23.5753 6.26136 23.4642 6.16535L21.8706 4.79582ZM22.58 8.80837H19.3294V5.67009H21.3094L22.58 6.76167V8.80837Z" fill=" #ff5d5d"/>
<path d="M8.3279 12.3712C7.69259 12.3712 7.08905 12.6087 6.63374 13.0383C6.17844 13.4729 5.92432 14.0389 5.92432 14.6453C5.92432 15.2518 6.17315 15.8178 6.63374 16.2524C7.09434 16.6819 7.69259 16.9194 8.3279 16.9194C9.63028 16.9194 10.6891 15.8986 10.6891 14.6453C10.6891 13.392 9.63028 12.3712 8.3279 12.3712ZM8.3279 15.9087C7.5973 15.9087 6.98316 15.3326 6.98316 14.6453C6.98316 13.958 7.5973 13.3819 8.3279 13.3819C9.04792 13.3819 9.63028 13.9479 9.63028 14.6453C9.63028 15.3427 9.04792 15.9087 8.3279 15.9087Z" fill=" #ff5d5d"/>
<path d="M4.79682 12.9928H3.73268V11.6485C3.73268 11.3706 3.49443 11.1432 3.20325 11.1432C2.91207 11.1432 2.67383 11.3706 2.67383 11.6485V13.4982C2.67383 13.7761 2.91207 14.0035 3.20325 14.0035H4.79682C5.088 14.0035 5.32624 13.7761 5.32624 13.4982C5.32624 13.2202 5.088 12.9928 4.79682 12.9928Z" fill=" #ff5d5d"/>
<path d="M7.48076 10.2385C7.48076 9.96057 7.24252 9.73315 6.95133 9.73315H0.529424C0.238241 9.73315 0 9.96057 0 10.2385C0 10.5165 0.238241 10.7439 0.529424 10.7439H6.95133C7.24252 10.7439 7.48076 10.5215 7.48076 10.2385Z" fill=" #ff5d5d"/>
<path d="M1.60429 8.41428L8.0262 8.44966C8.31739 8.44966 8.55563 8.2273 8.56092 7.94935C8.56622 7.66635 8.32798 7.43894 8.03679 7.43894L1.61488 7.40356C1.60959 7.40356 1.60959 7.40356 1.60959 7.40356C1.31841 7.40356 1.08016 7.62592 1.08016 7.90387C1.07487 8.18687 1.31311 8.41428 1.60429 8.41428Z" fill=" #ff5d5d"/>
<path d="M2.68421 6.11985H9.10612C9.3973 6.11985 9.63554 5.89244 9.63554 5.61449C9.63554 5.33654 9.3973 5.10913 9.10612 5.10913H2.68421C2.39303 5.10913 2.15479 5.33654 2.15479 5.61449C2.15479 5.89244 2.39303 6.11985 2.68421 6.11985Z" fill=" #ff5d5d"/>
<path d="M25.8044 5.43766L22.0137 2.44088C21.9184 2.36508 21.8019 2.32465 21.6748 2.32465H17.2171V0.505359C17.2171 0.227412 16.9789 0 16.6877 0H3.20325C2.91207 0 2.67383 0.227412 2.67383 0.505359V4.20459C2.67383 4.48254 2.91207 4.70995 3.20325 4.70995C3.49443 4.70995 3.73268 4.48254 3.73268 4.20459V1.01072H16.1635V12.9928H11.8223C11.5311 12.9928 11.2928 13.2202 11.2928 13.4981C11.2928 13.7761 11.5311 14.0035 11.8223 14.0035H18.2865C18.5777 14.0035 18.816 13.7761 18.816 13.4981C18.816 13.2202 18.5777 12.9928 18.2865 12.9928H17.2224V3.33537H21.4895L24.9414 6.06431L24.9043 12.9827H24.3537C24.0625 12.9827 23.8243 13.2101 23.8243 13.488C23.8243 13.766 24.0625 13.9934 24.3537 13.9934H25.4285C25.7196 13.9934 25.9579 13.771 25.9579 13.4931L26.0002 5.83184C25.9949 5.68023 25.9261 5.53368 25.8044 5.43766Z" fill=" #ff5d5d"/>
</svg>
