<svg width="801" height="801" viewBox="0 0 801 801" fill="none" xmlns="http://www.w3.org/2000/svg">
<path fill-rule="evenodd" clip-rule="evenodd" d="M640.733 207.401C646.805 201.114 650.165 192.694 650.089 183.954C650.013 175.214 646.507 166.854 640.327 160.673C634.146 154.493 625.786 150.987 617.046 150.911C608.306 150.835 599.886 154.195 593.599 160.267L400.499 353.367L207.399 160.267C201.113 154.195 192.693 150.835 183.953 150.911C175.213 150.987 166.852 154.493 160.672 160.673C154.492 166.854 150.986 175.214 150.91 183.954C150.834 192.694 154.194 201.114 160.266 207.401L353.366 400.501L160.266 593.601C157.082 596.675 154.543 600.354 152.796 604.42C151.049 608.487 150.13 612.861 150.091 617.287C150.053 621.713 150.896 626.102 152.572 630.199C154.248 634.296 156.723 638.017 159.853 641.147C162.983 644.277 166.704 646.752 170.801 648.428C174.898 650.104 179.287 650.947 183.713 650.909C188.139 650.87 192.513 649.951 196.58 648.204C200.646 646.457 204.325 643.918 207.399 640.734L400.499 447.634L593.599 640.734C599.886 646.806 608.306 650.166 617.046 650.09C625.786 650.014 634.146 646.508 640.327 640.328C646.507 634.148 650.013 625.787 650.089 617.047C650.165 608.307 646.805 599.887 640.733 593.601L447.633 400.501L640.733 207.401Z" fill="#272727"/>
</svg>
