<svg width="26" height="24" viewBox="0 0 26 24" fill="none" xmlns="http://www.w3.org/2000/svg">
<g clip-path="url(#clip0_1308_9992)">
<path d="M17.9942 0.0469518C15.5312 0.338288 14.3187 1.65039 12.8587 3.25164C11.0919 1.45106 9.73344 0.103905 6.76262 0.0622859C6.63355 0.0600954 6.51082 0.0622852 6.39445 0.0666662C4.69321 0.130191 3.11258 0.78734 1.9488 1.91106C0.774443 3.04574 0.0253916 4.64918 0 6.58996C0 6.71701 0 6.83967 0.00423193 6.95796C0.171193 11.7888 4.30241 15.6909 7.72998 18.9283L7.74232 18.94C8.37499 19.538 8.98438 20.1141 9.51126 20.6376L12.8841 24L16.8558 19.9213C17.3171 19.4482 17.8651 18.9049 18.4512 18.3244C19.4542 17.3299 20.5672 16.2259 21.6146 15.1022C22.3784 14.2852 23.1063 13.4572 23.7306 12.6554C24.3675 11.8384 24.9007 11.041 25.2604 10.2985C25.8973 8.98417 26.0962 7.6633 25.9587 6.42348C25.8232 5.20118 25.3598 4.06432 24.6679 3.09612C23.9824 2.13887 23.0683 1.34591 22.0209 0.802672C20.8084 0.17181 19.4161 -0.121716 17.9942 0.0469518Z" fill="#5C5C5C"/>
</g>
<defs>
<clipPath id="clip0_1308_9992">
<rect width="26" height="24" fill="white"/>
</clipPath>
</defs>
</svg>
