<svg width="26" height="24" viewBox="0 0 26 24" fill="none" xmlns="http://www.w3.org/2000/svg">
<path fill-rule="evenodd" clip-rule="evenodd" d="M12.8587 3.25164C14.3187 1.65039 15.5312 0.338288 17.9942 0.0469519C19.4161 -0.121716 20.8084 0.17181 22.0209 0.802672C23.0683 1.34591 23.9824 2.13887 24.6679 3.09612C25.3598 4.06432 25.8232 5.20118 25.9587 6.42348C26.0962 7.6633 25.8973 8.98417 25.2604 10.2985C24.9007 11.041 24.3675 11.8384 23.7306 12.6554C23.1063 13.4572 22.3784 14.2852 21.6146 15.1022C20.5672 16.2259 19.4542 17.3299 18.4512 18.3244C17.8651 18.9049 17.3171 19.4482 16.8558 19.9213L12.8841 24L9.51126 20.6376C8.98438 20.1141 8.37499 19.538 7.74232 18.94L7.72998 18.9283C4.30241 15.6909 0.171193 11.7888 0.00423193 6.95796C-4.65661e-10 6.83967 0 6.71701 0 6.58996C0.0253916 4.64918 0.774443 3.04574 1.9488 1.91106C3.11258 0.78734 4.69321 0.130191 6.39445 0.0666663C6.51082 0.0622853 6.63355 0.0600955 6.76262 0.062286C9.73344 0.103905 11.0919 1.45106 12.8587 3.25164ZM12.9047 5.87819L13.3559 5.39427C13.479 5.26318 13.5846 5.14792 13.6857 5.03746L13.7856 4.92843L13.7872 4.92678C14.9662 3.64243 15.9369 2.58506 17.7584 2.36829C18.8151 2.2438 19.8484 2.46266 20.7507 2.92449C21.534 3.32809 22.2176 3.91843 22.7313 4.63125C23.2372 5.33404 23.5751 6.1573 23.6727 7.03879C23.7723 7.93233 23.6259 8.88811 23.161 9.8439C22.8778 10.4262 22.4364 11.0788 21.8973 11.7655C21.3484 12.4663 20.7019 13.1952 20.0202 13.92C19.1143 14.884 18.1443 15.8406 17.2614 16.7113L17.1354 16.8356C16.5963 17.3657 16.0924 17.8616 15.647 18.3154L12.8833 21.1346L10.684 18.956C10.1568 18.4341 9.6065 17.9182 9.03291 17.3805L9.02569 17.3737C6.03925 14.5766 2.43755 11.2013 2.30278 7.33195C2.29888 7.23356 2.29692 7.1432 2.29888 7.05686C2.31646 5.67137 2.84968 4.53286 3.68565 3.72968C4.53334 2.91646 5.69353 2.44058 6.95139 2.39439C7.04905 2.39038 7.14281 2.38837 7.2307 2.39038C9.47883 2.4205 10.5707 3.52487 12.0199 4.99067L12.0311 5.00194C12.1643 5.13694 12.3011 5.27554 12.436 5.41034L12.9047 5.87819Z" fill="#6F6F6F"/>
</svg>
