<svg width="624" height="576" viewBox="0 0 624 576" fill="none" xmlns="http://www.w3.org/2000/svg">
<g clip-path="url(#clip0_357_284)">
<path fill-rule="evenodd" clip-rule="evenodd" d="M308.609 78.0394C343.649 39.6094 372.749 8.11891 431.861 1.12684C465.986 -2.92119 499.402 4.12344 528.502 19.2641C553.639 32.3018 575.578 51.3329 592.03 74.3069C608.635 97.5437 619.757 124.828 623.009 154.164C626.309 183.919 621.535 215.62 606.25 247.164C597.617 264.984 584.82 284.122 569.534 303.73C554.551 322.973 537.082 342.845 518.75 362.453C493.613 389.422 466.901 415.918 442.829 439.786C428.762 453.718 415.61 466.757 404.539 478.111L309.218 576L228.27 495.302C215.625 482.738 201 468.912 185.816 454.56L185.52 454.279C103.258 376.582 4.10863 282.931 0.101566 166.991C-1.11759e-08 164.152 0 161.208 0 158.159C0.609398 111.58 18.5866 73.0978 46.7712 45.8654C74.7019 18.8962 112.637 3.12458 153.467 1.59999C156.26 1.49485 159.205 1.44229 162.303 1.49486C233.603 2.49372 266.206 34.8254 308.609 78.0394ZM309.713 141.077L320.542 129.462C323.496 126.316 326.03 123.55 328.457 120.899L330.854 118.282L330.893 118.243C359.189 87.4183 382.486 62.0414 426.202 56.839C451.562 53.8512 476.362 59.1038 498.017 70.1878C516.816 79.8742 533.222 94.0423 545.551 111.15C557.693 128.017 565.802 147.775 568.145 168.931C570.535 190.376 567.022 213.315 555.864 236.254C549.067 250.229 538.474 265.891 525.535 282.372C512.362 299.191 496.846 316.685 480.485 334.08C458.743 357.216 435.463 380.174 414.274 401.071L411.25 404.054C398.311 416.777 386.218 428.678 375.528 439.57L309.199 507.23L256.416 454.944C243.763 442.418 230.556 430.037 216.79 417.132L216.617 416.969C144.942 349.838 58.5012 268.831 55.2667 175.967C55.1731 173.605 55.1261 171.437 55.1731 169.365C55.595 136.113 68.3923 108.789 88.4556 89.5123C108.8 69.995 136.645 58.5739 166.833 57.4654C169.177 57.3691 171.427 57.3209 173.537 57.3691C227.492 58.092 253.697 84.5969 288.478 119.776L288.746 120.047C291.943 123.287 295.226 126.613 298.464 129.848L309.713 141.077Z" fill="#2D2D2D"/>
<circle cx="465.193" cy="417.112" r="159.807" fill="white"/>
<path d="M489.419 281.623L489.419 551.486L440.844 551.486L440.844 281.623L489.419 281.623Z" fill="#265AD9"/>
<path d="M599.523 440.303L329.661 440.303L329.661 391.727L599.523 391.727L599.523 440.303Z" fill="#265AD9"/>
</g>
<defs>
<clipPath id="clip0_357_284">
<rect width="624" height="576" fill="white"/>
</clipPath>
</defs>
</svg>
