<svg width="624" height="576" viewBox="0 0 624 576" fill="none" xmlns="http://www.w3.org/2000/svg">
<g clip-path="url(#clip0_357_266)">
<mask id="mask0_357_266" style="mask-type:luminance" maskUnits="userSpaceOnUse" x="0" y="0" width="624" height="576">
<path d="M624 0H0V576H624V0Z" fill="white"/>
</mask>
<g mask="url(#mask0_357_266)">
<path d="M431.861 1.12684C372.749 8.11891 343.649 39.6094 308.609 78.0394C266.206 34.8254 233.603 2.49372 162.303 1.49486C159.205 1.44229 156.26 1.49484 153.467 1.59999C112.637 3.12458 74.7019 18.8962 46.7712 45.8654C18.5866 73.0978 0.609398 111.58 0 158.159C0 161.208 0 164.152 0.101566 166.991C4.10863 282.931 103.258 376.582 185.52 454.279L185.816 454.56C201 468.912 215.625 482.738 228.27 495.302L309.218 576L404.539 478.111C415.61 466.757 428.762 453.718 442.829 439.786C466.901 415.918 493.613 389.422 518.75 362.453C537.082 342.845 554.551 322.973 569.534 303.73C584.82 284.122 597.617 264.984 606.25 247.164C621.535 215.62 626.309 183.919 623.009 154.164C619.757 124.828 608.635 97.5437 592.03 74.3069C575.578 51.3329 553.639 32.3018 528.502 19.2641C499.402 4.12344 465.986 -2.92118 431.861 1.12684Z" fill="#4267C2"/>
</g>
<circle cx="463.807" cy="415.807" r="159.807" fill="white"/>
<path d="M568.886 439.888L359.823 439.888L359.823 391.727L568.886 391.727L568.886 439.888Z" fill="#444444"/>
</g>
<defs>
<clipPath id="clip0_357_266">
<rect width="624" height="576" fill="white"/>
</clipPath>
</defs>
</svg>
