<svg width="22" height="25" viewBox="0 0 22 25" fill="none" xmlns="http://www.w3.org/2000/svg">
<g clip-path="url(#clip0_797_9461)">
<path d="M3.74219 8.48208C3.74219 12.6101 7.11967 15.9876 11.2477 15.9876C15.3757 15.9876 18.7532 12.6101 18.7532 8.48208C18.7532 4.35405 15.3757 0.976562 11.2477 0.976562C7.11967 0.976562 3.74219 4.35405 3.74219 8.48208ZM16.9872 8.48208C16.9872 11.6388 14.4044 14.2216 11.2477 14.2216C8.09097 14.2216 5.50819 11.6388 5.50819 8.48208C5.50819 5.32535 8.09097 2.74257 11.2477 2.74257C14.4044 2.74257 16.9872 5.32535 16.9872 8.48208Z" fill="white"/>
<path d="M2.50827 24.023C4.84823 21.683 7.93874 20.4027 11.25 20.4027C14.5613 20.4027 17.6518 21.683 19.9918 24.023L21.25 22.7647C18.579 20.1157 15.0249 18.6367 11.25 18.6367C7.47516 18.6367 3.92108 20.1157 1.25 22.7647L2.50827 24.023Z" fill="white"/>
</g>
<defs>
<clipPath id="clip0_797_9461">
<rect width="21" height="24" fill="white" transform="translate(0.5 0.5)"/>
</clipPath>
</defs>
</svg>
