<svg width="151" height="151" viewBox="0 0 151 151" fill="none" xmlns="http://www.w3.org/2000/svg">
<g clip-path="url(#clip0_797_9408)">
<path fill-rule="evenodd" clip-rule="evenodd" d="M75.5234 88.0217C91.0566 88.0217 103.649 75.4292 103.649 59.8965C103.649 44.3635 91.0566 31.7715 75.5234 31.7715C59.9904 31.7715 47.3984 44.3635 47.3984 59.8965C47.3984 75.4292 59.9904 88.0217 75.5234 88.0217ZM75.5234 75.5442C66.8816 75.5442 59.8759 68.5385 59.8759 59.8965C59.8759 51.2546 66.8816 44.249 75.5234 44.249C84.1653 44.249 91.1709 51.2546 91.1709 59.8965C91.1709 68.5385 84.1653 75.5442 75.5234 75.5442Z" fill="#0F0F0F"/>
<path fill-rule="evenodd" clip-rule="evenodd" d="M133.447 72.8856C141.528 36.6754 113.03 0.521484 75.4971 0.521484C37.9752 0.521484 9.47456 36.725 17.5481 72.89C23.7798 102.262 48.9796 130.79 64.0196 145.667C70.4609 152.039 80.5334 152.039 86.9746 145.667C102.015 130.789 127.217 102.259 133.447 72.8856ZM75.4971 13.0215C104.95 13.0215 127.602 41.6857 121.247 70.1631C118.195 83.8462 111.346 96.1337 103.31 107.493C94.9121 119.364 85.3903 129.652 78.184 136.781C76.6134 138.334 74.3809 138.334 72.8103 136.781C65.604 129.652 56.0833 119.366 47.6852 107.495C39.6483 96.135 32.8025 83.85 29.7478 70.1662C23.3995 41.7295 46.0604 13.0215 75.4971 13.0215Z" fill="#0F0F0F"/>
</g>
<defs>
<clipPath id="clip0_797_9408">
<rect width="150" height="150" fill="white" transform="translate(0.5 0.5)"/>
</clipPath>
</defs>
</svg>
