<svg width="20" height="21" viewBox="0 0 20 21" fill="none" xmlns="http://www.w3.org/2000/svg">
<path fill-rule="evenodd" clip-rule="evenodd" d="M8.77144 17.4141C9.62588 17.4141 10.3202 18.1058 10.3202 18.957C10.3202 19.8099 9.62588 20.5 8.77144 20.5C7.91537 20.5 7.22268 19.8099 7.22268 18.957C7.22268 18.1042 7.91537 17.4141 8.77144 17.4141ZM14.4519 6.98438C14.9012 6.98112 15.2655 7.34082 15.2638 7.78841C15.2638 8.236 14.8979 8.60221 14.4486 8.60547L12.4784 8.62175L12.4636 10.5879C12.4604 11.0322 12.0928 11.3919 11.6435 11.3903C11.1942 11.3903 10.8332 11.029 10.8365 10.5846L10.8512 8.63151L8.88744 8.64616C8.43816 8.64941 8.07384 8.28971 8.07548 7.84212C8.07711 7.39453 8.44143 7.02832 8.89234 7.02507L10.8626 7.01042L10.8773 5.04427C10.8806 4.59994 11.2482 4.24023 11.6974 4.24023C12.1467 4.24023 12.5078 4.60156 12.5045 5.0459L12.4914 6.99902L14.4519 6.98438ZM3.69711 2.55078H18.9397C19.9363 2.55078 19.8824 2.9528 19.7958 3.97819L19.2289 11.1787C19.1325 12.3262 19.2142 12.0479 17.9938 12.222L6.78321 13.6429L7.37625 15.3568C12.2398 15.3568 14.5908 15.3568 19.4511 15.3568C19.6144 15.9655 19.8366 16.9567 20 17.6354H17.9938L17.801 16.9421C13.7494 16.9421 12.2055 16.9421 8.15226 16.9421C5.93857 16.9046 6.16076 17.502 5.6298 15.596L1.8265 1.81999H0V0.5H3.20372C3.35239 1.05501 3.55824 1.98926 3.69711 2.55078ZM15.1593 17.4141C16.0137 17.4141 16.7081 18.1058 16.7081 18.957C16.7081 19.8099 16.0137 20.5 15.1593 20.5C14.3032 20.5 13.6105 19.8099 13.6105 18.957C13.6105 18.1042 14.3049 17.4141 15.1593 17.4141Z" fill="white"/>
</svg>
