<svg width="27" height="24" viewBox="0 0 27 24" fill="none" xmlns="http://www.w3.org/2000/svg">
<path d="M13.6208 1.35913C14.1899 1.35913 14.6514 1.82934 14.6514 2.40927C14.6514 2.98919 14.1899 3.4594 13.6208 3.4594C13.0518 3.4594 12.5903 2.98919 12.5903 2.40927C12.5903 1.82934 13.0518 1.35913 13.6208 1.35913Z" fill="#6F6F6F"/>
<path fill-rule="evenodd" clip-rule="evenodd" d="M26.9319 14.057L21.8979 4.99319C21.8584 4.91482 21.7969 4.84764 21.7156 4.79614C21.4915 4.66404 21.2058 4.74241 21.0762 4.97079L15.928 14.0235C15.8774 14.0996 15.8467 14.1936 15.8467 14.2922C15.8467 14.3302 15.8511 14.3705 15.8599 14.4063C15.9126 16.5335 18.3845 18.2464 21.4277 18.2464C24.5039 18.2464 26.9978 16.4954 26.9978 14.3369V14.3033H26.9934C26.9956 14.2205 26.9758 14.1354 26.9319 14.057ZM21.9177 6.96583L25.7234 13.8175H21.9177L21.0212 13.8152H17.1299L21.0212 6.97702L21.9177 6.96583ZM11.0852 14.057L6.05127 4.99319C6.01172 4.91482 5.9502 4.84764 5.8689 4.79838C5.64478 4.66628 5.35913 4.74465 5.22949 4.97303L0.0812988 14.0257C0.0307617 14.1018 0 14.1959 0 14.2944C0 14.3347 0.00439453 14.3728 0.0131836 14.4063C0.065918 16.5335 2.53784 18.2464 5.58105 18.2464C8.65723 18.2464 11.1511 16.4954 11.1511 14.3369V14.3033H11.1467C11.1489 14.2205 11.1292 14.1354 11.0852 14.057ZM9.87671 13.8175H6.07104L5.17236 13.8152H1.2832L5.17236 6.97702L6.07104 6.96583L9.87671 13.8175Z" fill="#6F6F6F"/>
<path fill-rule="evenodd" clip-rule="evenodd" d="M14.4163 4.68195V20.9691H22.2451C22.3286 20.9691 22.3945 21.0385 22.3945 21.1236V23.4196C22.3945 23.5046 22.3264 23.5741 22.2451 23.5741H5.01855C4.93506 23.5741 4.86694 23.5046 4.86694 23.4196V21.1236C4.86694 21.0385 4.93506 20.9691 5.01855 20.9691H12.8474V4.68867C12.1663 4.44685 11.6257 3.89827 11.3884 3.20415H6.43799V3.97216C6.43799 4.05724 6.36987 4.12442 6.28857 4.12442H5.01855C4.93506 4.12442 4.86694 4.055 4.86694 3.97216V3.20415H3.60791C3.51123 3.20415 3.43213 3.13474 3.43213 3.05189V1.75545C3.43213 1.67037 3.51123 1.60095 3.60791 1.60095H11.3928C11.718 0.66949 12.5925 0 13.6208 0C14.6492 0 15.5237 0.66949 15.8489 1.60319H23.6558C23.7524 1.60319 23.8315 1.67261 23.8315 1.75769V3.05189C23.8315 3.13697 23.7524 3.20415 23.6558 3.20415H22.2363V3.97216C22.2363 4.05724 22.1682 4.12442 22.0869 4.12442H20.8169C20.7334 4.12442 20.6653 4.055 20.6653 3.97216V3.20415H15.8555C15.6204 3.89155 15.0886 4.43565 14.4163 4.68195ZM14.6514 2.40927C14.6514 1.82934 14.1899 1.35913 13.6208 1.35913C13.0518 1.35913 12.5903 1.82934 12.5903 2.40927C12.5903 2.98919 13.0518 3.4594 13.6208 3.4594C14.1899 3.4594 14.6514 2.98919 14.6514 2.40927Z" fill="#6F6F6F"/>
</svg>
