<svg width="20" height="21" viewBox="0 0 20 21" fill="none" xmlns="http://www.w3.org/2000/svg">
<g clip-path="url(#clip0_797_9421)">
<mask id="mask0_797_9421" style="mask-type:luminance" maskUnits="userSpaceOnUse" x="1" y="1" width="19" height="20">
<path d="M19.4336 1.08398H1.43359V20.084H19.4336V1.08398Z" fill="white"/>
</mask>
<g mask="url(#mask0_797_9421)">
<path d="M8.69184 0.833984C10.6961 0.833984 12.5104 1.67018 13.8239 3.0222C15.1374 4.37422 15.9498 6.2419 15.9498 8.30503C15.9498 10.2856 15.2011 12.0857 13.9794 13.4227C14.0016 13.4395 14.0231 13.4582 14.0434 13.479L19.2686 18.8501C19.4875 19.0741 19.4887 19.4387 19.2707 19.6642C19.0531 19.8896 18.6988 19.8905 18.48 19.6665L13.2547 14.2954C13.2215 14.2614 13.1935 14.2242 13.1702 14.1848C11.9365 15.1817 10.3816 15.7762 8.69169 15.7762C6.68737 15.7762 4.87277 14.94 3.55929 13.588C2.24595 12.236 1.43359 10.3682 1.43359 8.30503C1.43359 6.2419 2.24595 4.37422 3.55944 3.0222C4.87292 1.67034 6.68752 0.833984 8.69184 0.833984ZM13.0124 3.85762C11.9067 2.71945 10.3792 2.01545 8.69184 2.01545C7.00447 2.01545 5.47678 2.71945 4.37105 3.85762C3.26531 4.9958 2.58138 6.56816 2.58138 8.30503C2.58138 10.0419 3.26531 11.6144 4.37105 12.7525C5.47663 13.8907 7.00432 14.5947 8.69184 14.5947C10.3792 14.5947 11.9067 13.8907 13.0124 12.7525C14.1182 11.6145 14.8021 10.0421 14.8021 8.30503C14.8021 6.56816 14.1182 4.9958 13.0124 3.85762Z" fill="#1B1B1B"/>
</g>
</g>
<defs>
<clipPath id="clip0_797_9421">
<rect width="19" height="20" fill="white" transform="translate(0.5 0.5)"/>
</clipPath>
</defs>
</svg>
