<svg width="30" height="30" viewBox="0 0 30 30" fill="none" xmlns="http://www.w3.org/2000/svg">
<path d="M15 30C23.2843 30 30 23.2843 30 15C30 6.71573 23.2843 0 15 0C6.71573 0 0 6.71573 0 15C0 23.2843 6.71573 30 15 30Z" fill="url(#paint0_linear_115_322)"/>
<path fill-rule="evenodd" clip-rule="evenodd" d="M6.78999 14.8418C11.1628 12.9363 14.0785 11.6806 15.5374 11.0736C19.7035 9.34099 20.5689 9.03982 21.1332 9.02986C21.2574 9.0281 21.5345 9.05857 21.7144 9.20446C21.8662 9.32751 21.9078 9.49392 21.9277 9.61052C21.9476 9.72771 21.9728 9.99314 21.9529 10.2011C21.7273 12.573 20.7505 18.3287 20.2537 20.9853C20.0433 22.1097 19.629 22.4865 19.2283 22.5234C18.3576 22.6037 17.696 21.9474 16.8523 21.3943C15.5322 20.5295 14.7863 19.9904 13.5048 19.1461C12.0236 18.1699 12.9839 17.6338 13.8277 16.7572C14.0486 16.5275 17.8865 13.0365 17.9609 12.7201C17.9703 12.6802 17.979 12.5326 17.8912 12.4547C17.8033 12.3767 17.6738 12.4037 17.5806 12.4248C17.4482 12.4547 15.3394 13.8486 11.2537 16.6066C10.6548 17.0179 10.1123 17.2177 9.62651 17.2078C9.09096 17.1961 8.06088 16.9049 7.29506 16.6558C6.35581 16.3506 5.60932 16.1888 5.67436 15.6703C5.70776 15.4002 6.07983 15.1242 6.78999 14.8418Z" fill="white"/>
<defs>
<linearGradient id="paint0_linear_115_322" x1="15" y1="0.225" x2="15" y2="30" gradientUnits="userSpaceOnUse">
<stop stop-color="#2AABEE"/>
<stop offset="1" stop-color="#229ED9"/>
</linearGradient>
</defs>
</svg>
