<svg width="151" height="151" viewBox="0 0 151 151" fill="none" xmlns="http://www.w3.org/2000/svg">
<path d="M46.3034 63.9446C50.6731 71.8661 55.7093 79.4687 62.2585 86.4011C68.8077 93.3869 76.9651 99.735 87.5346 105.136C88.3071 105.53 89.0584 105.53 89.7145 105.253C90.7299 104.86 91.735 104.041 92.7613 103.02C93.5338 102.244 94.5177 100.979 95.5337 99.618C99.5856 94.2482 104.622 87.5813 111.721 90.9096C111.88 90.9842 111.996 91.069 112.155 91.1436L135.812 104.828C135.887 104.87 135.971 104.945 136.046 104.987C139.166 107.135 140.458 110.464 140.5 114.238C140.5 118.077 139.093 122.394 137.03 126.04C134.3 130.857 130.279 134.036 125.645 136.152C121.233 138.183 116.324 139.289 111.605 139.99C104.199 141.086 97.2579 140.384 90.1483 138.183C83.1967 136.035 76.2139 132.452 68.5749 127.72L68.0248 127.359C64.5227 125.169 60.7244 122.808 57.0212 120.022C43.415 109.719 29.576 94.8222 20.5616 78.437C12.9967 64.6676 8.85975 49.8135 11.1134 35.6612C12.3618 27.8993 15.6841 20.8391 21.4503 16.1819C26.476 12.1095 33.2685 9.87656 42.0502 10.6528C43.0659 10.7272 43.9652 11.3226 44.4307 12.1839L59.6134 37.9792C61.8353 40.882 62.1104 43.7422 60.9043 46.6131C59.8886 48.9629 57.8571 51.1214 55.0851 53.1629C54.2704 53.8647 53.2864 54.5771 52.2707 55.3107C48.885 57.7775 45.0127 60.6378 46.3352 64.0191L46.3034 63.9446Z" fill="#525252"/>
</svg>
