<svg width="22" height="23" viewBox="0 0 22 23" fill="none" xmlns="http://www.w3.org/2000/svg">
<path d="M19.5556 1H2.44444C1.79614 1 1.17438 1.35659 0.715961 1.99133C0.257539 2.62607 0 3.48696 0 4.38462L0 12H22V4.38462C22 3.48696 21.7425 2.62607 21.284 1.99133C20.8256 1.35659 20.2039 1 19.5556 1Z" fill="#3A62C8"/>
<path d="M22 18.9231C22 19.7391 21.7425 20.5218 21.284 21.0988C20.8256 21.6758 20.2039 22 19.5556 22H2.44444C1.79614 22 1.17438 21.6758 0.715961 21.0988C0.257539 20.5218 0 19.7391 0 18.9231V12H22V18.9231Z" fill="#FFD500"/>
</svg>
