<svg width="29" height="30" viewBox="0 0 29 30" fill="none" xmlns="http://www.w3.org/2000/svg">
<path d="M25.0783 2.92607C24.3372 2.23818 21.3442 0.0508698 14.6765 0.0215729C14.6765 0.0215729 6.81348 -0.455968 2.98097 3.08252C0.847264 5.23057 0.0962476 8.37355 0.0176528 12.2695C-0.0621063 16.166 -0.163988 23.4679 6.8292 25.4484H6.83619L6.83153 28.4695C6.83153 28.4695 6.7867 29.6924 7.5872 29.942C8.55537 30.2443 9.123 29.315 10.0475 28.3125C10.5546 27.7623 11.255 26.9543 11.783 26.3367C16.5656 26.7422 20.2445 25.8158 20.6625 25.6793C21.6277 25.364 27.0927 24.6592 27.9817 17.3578C28.8992 9.83195 27.538 5.07178 25.0783 2.92607ZM15.2423 17.1826C15.2423 17.1826 15.7721 17.2277 16.058 16.8738L16.614 16.1695C16.8823 15.8197 17.5303 15.597 18.1643 15.9527C18.6394 16.2251 19.1016 16.5234 19.5464 16.8421C19.9673 17.1533 20.829 17.8775 20.8319 17.8775C21.2423 18.2261 21.3372 18.7382 21.0578 19.2785C21.0578 19.282 21.0554 19.2873 21.0554 19.2902C20.7486 19.8263 20.3568 20.3115 19.8981 20.7246C19.8928 20.7269 19.8928 20.7298 19.8876 20.7328C19.4888 21.0685 19.097 21.2589 18.7121 21.3052C18.6679 21.3129 18.6231 21.317 18.5777 21.317C18.5654 21.317 18.5526 21.3164 18.5404 21.3158H18.5253C18.3605 21.3158 18.1963 21.2894 18.0403 21.2384L18.0275 21.2197C17.4343 21.0515 16.444 20.6302 14.7952 19.7144C13.8408 19.1909 12.9324 18.5866 12.0799 17.908C11.652 17.5716 11.2422 17.2042 10.8579 16.8193L10.8166 16.7777L10.7758 16.7367L10.7752 16.7355L10.7339 16.6945L10.6926 16.6529C10.3083 16.2646 9.9465 15.8544 9.60913 15.4242C8.9402 14.5681 8.33298 13.647 7.81542 12.6902C6.90547 11.0302 6.48688 10.0341 6.31921 9.43645L6.30116 9.42356C6.25051 9.26652 6.22431 9.10188 6.22431 8.93664V8.92023C6.22373 8.90676 6.22373 8.89269 6.22373 8.87922C6.22373 8.83469 6.22722 8.79074 6.23479 8.74738C6.28311 8.36066 6.4729 7.96574 6.80417 7.5632C6.80708 7.55793 6.80999 7.55792 6.81232 7.55265C7.22303 7.09032 7.70456 6.69707 8.23867 6.3878C8.24099 6.3878 8.24682 6.38487 8.24973 6.38487C8.7865 6.10362 9.29533 6.19913 9.64173 6.60988C9.64464 6.6128 10.3625 7.48058 10.6704 7.90421C10.9866 8.3507 11.2829 8.81828 11.553 9.29582C11.9064 9.93332 11.6852 10.5866 11.3382 10.8562L10.6378 11.4163C10.2845 11.7034 10.331 12.2367 10.331 12.2367C10.331 12.2367 11.3679 16.1871 15.2423 17.1826ZM21.7121 13.5304C21.7127 13.7396 21.5451 13.9095 21.3378 13.9101C21.2382 13.9104 21.1425 13.8709 21.0717 13.8002C21.001 13.7296 20.961 13.6336 20.9605 13.5333C20.9518 12.3779 20.7766 11.3466 20.4348 10.4396C20.0977 9.54485 19.5965 8.77082 18.931 8.11808C18.2627 7.46242 17.5128 6.96906 16.6815 6.63741C15.8455 6.3046 14.928 6.13409 13.9295 6.12706C13.8802 6.12694 13.8314 6.11703 13.7859 6.09791C13.7403 6.07878 13.699 6.05082 13.6643 6.01561C13.6295 5.9804 13.602 5.93864 13.5832 5.89271C13.5645 5.84679 13.555 5.7976 13.5552 5.74796C13.5553 5.69828 13.5652 5.64911 13.5842 5.60327C13.6033 5.55744 13.6311 5.51583 13.6662 5.48084C13.7012 5.44584 13.7428 5.41815 13.7884 5.39933C13.8341 5.38052 13.8831 5.37096 13.9324 5.3712C15.031 5.37882 16.0399 5.56573 16.958 5.93194C17.8808 6.29991 18.7133 6.84777 19.4556 7.5755C20.2008 8.30676 20.762 9.17277 21.1387 10.173C21.5113 11.1609 21.7022 12.2806 21.7121 13.5304ZM19.731 12.7599C19.7275 12.9685 19.5557 13.1343 19.3485 13.1302C19.2991 13.1293 19.2504 13.1186 19.2052 13.0987C19.1599 13.0788 19.119 13.0502 19.0848 13.0144C19.0505 12.9785 19.0237 12.9363 19.0057 12.89C18.9877 12.8437 18.9789 12.7943 18.98 12.7447C19.0079 11.4585 18.6324 10.3874 17.8546 9.53195C17.4663 9.10539 17.0017 8.77375 16.4608 8.53586C15.9118 8.29445 15.2813 8.14855 14.5687 8.09582C14.3615 8.08117 14.2055 7.90011 14.22 7.69093C14.2235 7.64134 14.2366 7.59292 14.2587 7.54844C14.2808 7.50396 14.3113 7.46429 14.3486 7.43169C14.3859 7.3991 14.4293 7.37422 14.4761 7.35848C14.523 7.34274 14.5724 7.33645 14.6217 7.33996C15.4193 7.39855 16.1319 7.56496 16.7612 7.84211C17.3982 8.12218 17.9466 8.51476 18.4082 9.0216C19.3223 10.0271 19.763 11.2728 19.731 12.7599ZM17.797 12.082C17.8014 12.1822 17.7663 12.2801 17.6992 12.3542C17.632 12.4283 17.5385 12.4727 17.4389 12.4775C17.3895 12.4799 17.3402 12.4724 17.2937 12.4556C17.2472 12.4388 17.2044 12.4129 17.1679 12.3794C17.1313 12.346 17.1017 12.3056 17.0807 12.2606C17.0596 12.2155 17.0476 12.1668 17.0454 12.1171C17.0133 11.4685 16.8422 10.9827 16.5319 10.6593C16.2251 10.3406 15.764 10.1648 15.1486 10.1325C15.0993 10.13 15.0509 10.1178 15.0062 10.0965C14.9616 10.0751 14.9216 10.0452 14.8884 10.0083C14.8553 9.97141 14.8297 9.92831 14.8131 9.88147C14.7965 9.83462 14.7892 9.78494 14.7917 9.73528C14.8028 9.52668 14.9792 9.36555 15.1864 9.37668C15.9998 9.41945 16.6291 9.67199 17.0739 10.1349C17.514 10.5931 17.755 11.2423 17.797 12.082ZM25.8887 16.8181C25.1383 22.9142 20.7061 23.2974 19.8887 23.5611C19.5412 23.6742 16.3106 24.4828 12.2476 24.2162C12.2476 24.2162 9.22023 27.8918 8.27476 28.8474C8.12689 28.9969 7.9534 29.0572 7.83754 29.0273C7.67453 28.9875 7.63028 28.7935 7.63203 28.5099C7.63436 28.1045 7.65765 23.4896 7.65765 23.4896C1.7415 21.8361 2.08673 15.6216 2.15368 12.3667C2.22064 9.11242 2.82843 6.4464 4.63262 4.65342C7.8748 1.69795 14.5536 2.13974 14.5536 2.13974C20.1932 2.16435 22.8963 3.87354 23.5227 4.44659C25.6035 6.23956 26.6636 10.5304 25.8887 16.8164V16.8181Z" fill="#7360F2"/>
</svg>
