<svg width="150" height="150" viewBox="0 0 150 150" fill="none" xmlns="http://www.w3.org/2000/svg">
<path d="M99.256 22.6651C93.46 19.8275 88.1775 18.2471 81.6406 17.4282C80.3484 17.2759 77.973 17.0853 76.3578 17.0282C73.2603 16.933 72.6333 17.0473 71.7401 17.8663C70.2771 19.1803 70.3527 21.9987 71.8733 23.1985C72.6903 23.8271 73.3176 23.9601 76.9281 24.1696C87.6073 24.798 95.7593 27.6928 103.645 33.6344C113.109 40.7378 119.038 50.6408 121.28 63.0382C121.85 66.1996 122.135 68.8466 122.325 72.9411C122.439 75.6074 122.534 76.1975 122.876 76.8831C123.959 78.9587 127.133 79.2639 128.577 77.4164C129.337 76.4643 129.432 75.7214 129.299 72.3888C128.938 62.6193 126.829 53.7449 123.123 46.2796C120.463 40.9284 117.954 37.4812 113.432 32.9297C108.605 28.1116 104.957 25.4647 99.256 22.6651Z" fill="#7360F2"/>
<path d="M40.4813 20.6276C39.8922 20.2466 38.866 19.7134 38.2008 19.485C36.8324 18.9898 34.6853 18.7802 33.4502 19.0469C31.6449 19.4277 29.3837 20.7799 24.4809 24.4364C21.5355 26.6454 17.4881 30.6066 16.5377 32.2062C14.3337 35.9959 14.4666 39.2146 17.1457 46.6226C21.7445 59.3249 28.4715 71.57 37.3075 83.3771C54.22 105.983 75.5219 122.436 102.201 133.463C105.603 134.872 106.705 135.1 109.365 134.967C112.596 134.815 115.047 133.806 118.505 131.178C122.325 128.264 127.798 121.446 129.204 117.809C130.534 114.362 130.192 111.239 128.216 108.801C127.095 107.449 118.809 100.669 114.933 97.9458C111.988 95.8891 107.427 93.0516 105.337 91.966C102.582 90.5567 99.8453 90.3094 97.1657 91.2234C95.0564 91.9471 94.3532 92.5753 91.275 96.4605C89.6787 98.4408 88.2153 100.231 88.0256 100.403C87.8163 100.574 87.1514 100.955 86.5244 101.24C84.0349 102.402 80.6332 101.697 75.0656 98.9171C70.7329 96.7649 66.8944 94.042 62.5429 90.0426C58.8373 86.6526 55.094 82.2346 53.004 78.7877C50.3055 74.3504 48.2532 68.58 48.2339 65.3997C48.2339 64.0285 48.7852 62.0862 49.4693 61.0959C49.7351 60.6959 51.4266 59.1913 53.2319 57.7251C57.7356 54.0876 58.7424 52.945 59.3508 50.7739C59.9396 48.7553 59.3125 46.032 57.4314 42.3566C54.1438 35.9196 44.0915 23.0272 40.4813 20.6276Z" fill="#7360F2"/>
<path d="M109.27 47.0224C103.417 38.3003 94.4864 32.9297 82.9516 31.2349C78.4099 30.5492 76.8899 30.797 75.9017 32.3396C74.9896 33.7297 75.1038 35.4055 76.1867 36.6434C76.8898 37.4623 77.916 37.8432 79.7785 37.9957C84.9282 38.4146 90.5718 40.1094 94.3914 42.3947C98.838 45.0419 102.486 48.8505 104.995 53.4591C107.199 57.4964 108.472 62.6956 108.472 67.6279C108.472 70.8272 108.909 72.008 110.372 72.7506C111.247 73.2078 112.824 73.2457 113.565 72.8647C114.249 72.5031 115.047 71.627 115.294 70.9797C115.56 70.294 115.56 66.1614 115.313 63.8951C114.61 57.7059 112.558 51.9357 109.27 47.0224Z" fill="#7360F2"/>
<path d="M96.0635 50.1456C93.6123 47.8412 90.7427 46.4129 86.9992 45.613C86.2203 45.4415 84.757 45.2703 83.7688 45.2132C82.1728 45.118 81.8687 45.1561 81.1463 45.5179C79.2271 46.5082 78.6952 49.1934 80.0825 50.8503C80.8424 51.7452 81.5454 52.0118 83.883 52.2975C88.8615 52.9069 91.8071 54.7732 93.4794 58.3724C94.2583 60.0674 94.7144 61.8956 94.9613 64.5047C95.1703 66.4661 95.4554 67.1896 96.3675 67.8753C97.6219 68.8465 99.693 68.8085 100.814 67.7801C102.011 66.6755 102.22 65.3426 101.707 61.9528C100.947 56.7537 99.2178 53.1353 96.0635 50.1456Z" fill="#7360F2"/>
</svg>
