<svg xmlns="http://www.w3.org/2000/svg" xmlns:xlink="http://www.w3.org/1999/xlink" height="800px" width="800px" version="1.1" id="Layer_1" viewBox="0 0 512 512" xml:space="preserve">

<path style="fill:#F4F6F9;" d="M356.443,250.997L193.627,88.388c-2.762-2.755-7.235-2.755-9.997,0l-28.073,28.034  c-1.326,1.326-2.071,3.124-2.071,5.002c0,1.878,0.746,3.677,2.071,5.002l129.738,129.571L155.557,385.571  c-1.326,1.326-2.071,3.124-2.071,5.002s0.746,3.677,2.071,5.002l28.073,28.034c1.381,1.377,3.189,2.068,4.998,2.068  s3.618-0.69,4.998-2.068l162.816-162.608c1.326-1.326,2.071-3.124,2.071-5.002C358.514,254.122,357.769,252.322,356.443,250.997z   M188.628,408.618l-18.068-18.045l129.738-129.571c1.326-1.326,2.071-3.124,2.071-5.002c0-1.878-0.746-3.677-2.071-5.002  L170.56,121.425l18.068-18.044L341.44,255.999L188.628,408.618z"/>
</svg>