<svg width="18" height="18" viewBox="0 0 18 18" fill="none" xmlns="http://www.w3.org/2000/svg">
                                        <g clip-path="url(#clip0_725_9426)">
                                            <path d="M16.0436 2.34784H11.9349V0.586969C11.9349 0.262828 11.6721 0 11.3479 0H6.65224C6.3281 0 6.06527 0.262793 6.06527 0.586969V2.34784H1.9566C1.63246 2.34784 1.36963 2.61063 1.36963 2.93481V5.28265C1.36963 5.60679 1.63242 5.86962 1.9566 5.86962H2.54357V17.4131C2.54357 17.7372 2.80636 18.0001 3.13054 18.0001H14.8697C15.1938 18.0001 15.4566 17.7373 15.4566 17.4131V5.86958H16.0436C16.3677 5.86958 16.6306 5.60679 16.6306 5.28261V2.93477C16.6305 2.61063 16.3677 2.34784 16.0436 2.34784ZM7.23921 1.1739H10.761V2.3478H7.23921V1.1739ZM14.2827 16.8261H3.71747V5.86958H14.2827V16.8261ZM15.4566 4.69565C14.0842 4.69565 3.89089 4.69565 2.54357 4.69565V3.52174C2.81585 3.52174 15.1845 3.52174 15.4566 3.52174V4.69565Z" fill="white"></path>
   
                                        </g>
                                        <defs>
                                            <clipPath id="clip0_725_9426">
                                                <rect width="18" height="18" fill="white"></rect>
                                            </clipPath>
                                        </defs>
                                    </svg>