<svg width="20" height="21" viewBox="0 0 20 21" fill="none" xmlns="http://www.w3.org/2000/svg">
<path d="M12 5.17804H8C7.73478 5.17804 7.48043 5.2834 7.29289 5.47093C7.10536 5.65847 7 5.91282 7 6.17804V19.178C7 19.4433 7.10536 19.6976 7.29289 19.8851C7.48043 20.0727 7.73478 20.178 8 20.178H12C12.2652 20.178 12.5196 20.0727 12.7071 19.8851C12.8946 19.6976 13 19.4433 13 19.178V6.17804C13 5.91282 12.8946 5.65847 12.7071 5.47093C12.5196 5.2834 12.2652 5.17804 12 5.17804ZM11 18.178H9V7.17804H11V18.178Z" fill="white"/>
<path d="M19 0.17804H15C14.7348 0.17804 14.4804 0.283396 14.2929 0.470933C14.1054 0.658469 14 0.912823 14 1.17804V19.178C14 19.4433 14.1054 19.6976 14.2929 19.8851C14.4804 20.0727 14.7348 20.178 15 20.178H19C19.2652 20.178 19.5196 20.0727 19.7071 19.8851C19.8946 19.6976 20 19.4433 20 19.178V1.17804C20 0.912823 19.8946 0.658469 19.7071 0.470933C19.5196 0.283396 19.2652 0.17804 19 0.17804ZM18 18.178H16V2.17804H18V18.178Z" fill="white"/>
<path d="M5 10.178H1C0.734784 10.178 0.48043 10.2834 0.292893 10.4709C0.105357 10.6585 0 10.9128 0 11.178V19.178C0 19.4433 0.105357 19.6976 0.292893 19.8851C0.48043 20.0727 0.734784 20.178 1 20.178H5C5.26522 20.178 5.51957 20.0727 5.70711 19.8851C5.89464 19.6976 6 19.4433 6 19.178V11.178C6 10.9128 5.89464 10.6585 5.70711 10.4709C5.51957 10.2834 5.26522 10.178 5 10.178ZM4 18.178H2V12.178H4V18.178Z" fill="white"/>
</svg>
