<svg width="20" height="20" viewBox="0 0 20 20" fill="none" xmlns="http://www.w3.org/2000/svg">
<path d="M18 15V18H2V15H0V19C0 19.2652 0.105357 19.5196 0.292893 19.7071C0.48043 19.8946 0.734784 20 1 20H19C19.2652 20 19.5196 19.8946 19.7071 19.7071C19.8946 19.5196 20 19.2652 20 19V15H18Z" fill="white"/>
<path d="M9.99997 15C10.1313 15.0002 10.2614 14.9743 10.3827 14.9241C10.504 14.8738 10.6142 14.8 10.707 14.707L14.707 10.707L13.293 9.293L11 11.5859V0H8.99997V11.5859L6.70697 9.293L5.29297 10.707L9.29297 14.707C9.3857 14.8 9.49589 14.8738 9.61723 14.9241C9.73856 14.9743 9.86863 15.0002 9.99997 15Z" fill="white"/>
</svg>
