<svg width="800" height="800" viewBox="0 0 800 800" fill="none" xmlns="http://www.w3.org/2000/svg">
<g clip-path="url(#clip0_1412_9105)">
<path d="M402.7 251.1C319.875 251.1 252.7 318.275 252.7 401.1C252.7 483.925 319.875 551.1 402.7 551.1C485.525 551.1 552.7 483.95 552.7 401.1C552.7 318.25 485.55 251.1 402.7 251.1ZM402.7 501.1C347.55 501.1 301.55 455.15 301.55 400C301.55 344.85 346.4 300 401.55 300C456.7 300 501.55 344.85 501.55 400C501.55 455.15 457.85 501.1 402.7 501.1ZM799.75 394.2C799.45 392.95 799.6 391.6 799.225 390.375C799.075 389.85 798.725 389.55 798.55 389.1C798.275 388.4 798.35 387.55 797.975 386.875C725.25 220.375 568.55 124.575 401.55 124.575C234.55 124.575 74.7 220.225 1.95 386.725C1.65 387.425 1.7 388.15 1.425 388.95C1.25 389.45 0.9 389.7 0.725 390.175C0.35 391.425 0.5 392.75 0.25 394.025C-0.2 396.275 -0.625 398.475 -0.625 400.75C-0.625 403.025 -0.2 405.175 0.25 407.45C0.5 408.7 0.325 410.075 0.725 411.25C0.875 411.825 1.25 412.05 1.425 412.55C1.675 413.225 1.625 414.075 1.95 414.775C74.7 581.225 233 675.475 400 675.475C567 675.475 725.275 581.425 798 414.925C798.375 414.2 798.3 413.475 798.575 412.675C798.75 412.25 799.075 411.925 799.225 411.425C799.6 410.2 799.5 408.875 799.75 407.575C800.2 405.325 800.6 403.15 800.6 400.825C800.6 398.625 800.175 396.45 799.725 394.175L799.75 394.2ZM400 625.475C258.375 625.475 118.95 550.825 50.45 400.725C118.3 251.15 259.575 174.55 401.55 174.55C543.5 174.55 681.625 251.225 749.5 400.875C681.675 550.425 542 625.475 400 625.475Z" fill="white"/>
</g>
<defs>
<clipPath id="clip0_1412_9105">
<rect width="800" height="800" fill="white"/>
</clipPath>
</defs>
</svg>
