<svg width="20" height="20" viewBox="0 0 20 20" fill="none" xmlns="http://www.w3.org/2000/svg">
<path d="M5 0H1C0.447715 0 0 0.447715 0 1V5C0 5.55228 0.447715 6 1 6H5C5.55228 6 6 5.55228 6 5V1C6 0.447715 5.55228 0 5 0Z" fill="white"/>
<path d="M12 0H8C7.44772 0 7 0.447715 7 1V5C7 5.55228 7.44772 6 8 6H12C12.5523 6 13 5.55228 13 5V1C13 0.447715 12.5523 0 12 0Z" fill="white"/>
<path d="M19 0H15C14.4477 0 14 0.447715 14 1V5C14 5.55228 14.4477 6 15 6H19C19.5523 6 20 5.55228 20 5V1C20 0.447715 19.5523 0 19 0Z" fill="white"/>
<path d="M5 7H1C0.447715 7 0 7.44772 0 8V12C0 12.5523 0.447715 13 1 13H5C5.55228 13 6 12.5523 6 12V8C6 7.44772 5.55228 7 5 7Z" fill="white"/>
<path d="M12 7H8C7.44772 7 7 7.44772 7 8V12C7 12.5523 7.44772 13 8 13H12C12.5523 13 13 12.5523 13 12V8C13 7.44772 12.5523 7 12 7Z" fill="white"/>
<path d="M19 7H15C14.4477 7 14 7.44772 14 8V12C14 12.5523 14.4477 13 15 13H19C19.5523 13 20 12.5523 20 12V8C20 7.44772 19.5523 7 19 7Z" fill="white"/>
<path d="M5 14H1C0.447715 14 0 14.4477 0 15V19C0 19.5523 0.447715 20 1 20H5C5.55228 20 6 19.5523 6 19V15C6 14.4477 5.55228 14 5 14Z" fill="white"/>
<path d="M12 14H8C7.44772 14 7 14.4477 7 15V19C7 19.5523 7.44772 20 8 20H12C12.5523 20 13 19.5523 13 19V15C13 14.4477 12.5523 14 12 14Z" fill="white"/>
<path d="M19 14H15C14.4477 14 14 14.4477 14 15V19C14 19.5523 14.4477 20 15 20H19C19.5523 20 20 19.5523 20 19V15C20 14.4477 19.5523 14 19 14Z" fill="white"/>
</svg>
