<svg width="18" height="21" viewBox="0 0 18 21" fill="none" xmlns="http://www.w3.org/2000/svg">
<path d="M17.6 6.37804L9.6 0.378037C9.42687 0.248292 9.21635 0.178162 9 0.178162C8.78365 0.178162 8.57313 0.248292 8.4 0.378037L0.4 6.37804C0.275706 6.47109 0.174831 6.59186 0.105393 6.73073C0.0359551 6.86961 -0.000131869 7.02277 3.62084e-07 7.17804V19.178C3.62084e-07 19.4433 0.105357 19.6976 0.292894 19.8851C0.48043 20.0727 0.734784 20.178 1 20.178H17C17.2652 20.178 17.5196 20.0727 17.7071 19.8851C17.8946 19.6976 18 19.4433 18 19.178V7.17804C18.0001 7.02277 17.964 6.86961 17.8946 6.73073C17.8252 6.59186 17.7243 6.47109 17.6 6.37804ZM16 18.178H12V12.178H6V18.178H2V7.67804L9 2.42804L16 7.67804V18.178Z" fill="#ffffff"/>
</svg>
