<svg width="11" height="7" viewBox="0 0 11 7" fill="none" xmlns="http://www.w3.org/2000/svg">
<path d="M6.00008 7.00008C5.86874 7.00023 5.73867 6.97443 5.61734 6.92414C5.49601 6.87386 5.38581 6.80009 5.29308 6.70708L1.29308 2.70708C1.19757 2.61483 1.12139 2.50449 1.06898 2.38249C1.01657 2.26048 0.988985 2.12926 0.987831 1.99648C0.986677 1.8637 1.01198 1.73202 1.06226 1.60913C1.11254 1.48623 1.18679 1.37458 1.28069 1.28069C1.37458 1.18679 1.48623 1.11254 1.60913 1.06226C1.73202 1.01198 1.8637 0.986677 1.99648 0.987831C2.12926 0.988985 2.26048 1.01657 2.38249 1.06898C2.50449 1.12139 2.61483 1.19757 2.70708 1.29308L6.00008 4.58598L9.29308 1.29308C9.48168 1.11092 9.73429 1.01013 9.99648 1.01241C10.2587 1.01469 10.5095 1.11986 10.6949 1.30526C10.8803 1.49067 10.9855 1.74148 10.9878 2.00368C10.99 2.26588 10.8892 2.51848 10.7071 2.70708L6.70708 6.70708C6.61435 6.80009 6.50416 6.87386 6.38282 6.92414C6.26149 6.97443 6.13142 7.00023 6.00008 7.00008Z" fill="black"/>
</svg>
