<svg viewBox="0 0 18 24" fill="none" xmlns="http://www.w3.org/2000/svg">
<path d="M17 6H14V5C14 3.67392 13.4732 2.40215 12.5355 1.46447C11.5979 0.526784 10.3261 0 9 0C7.67392 0 6.40215 0.526784 5.46447 1.46447C4.52678 2.40215 4 3.67392 4 5V6H1C0.734784 6 0.48043 6.10536 0.292893 6.29289C0.105357 6.48043 0 6.73478 0 7V23C0 23.2652 0.105357 23.5196 0.292893 23.7071C0.48043 23.8946 0.734784 24 1 24H17C17.2652 24 17.5196 23.8946 17.7071 23.7071C17.8946 23.5196 18 23.2652 18 23V7C18 6.73478 17.8946 6.48043 17.7071 6.29289C17.5196 6.10536 17.2652 6 17 6ZM6 5C6 4.20435 6.31607 3.44129 6.87868 2.87868C7.44129 2.31607 8.20435 2 9 2C9.79565 2 10.5587 2.31607 11.1213 2.87868C11.6839 3.44129 12 4.20435 12 5V6H6V5ZM16 22H2V8H16V22Z" fill="white"/>
<path d="M8.50008 13H11.0001C11.2653 13 11.5196 12.8946 11.7072 12.7071C11.8947 12.5196 12.0001 12.2652 12.0001 12C12.0001 11.7348 11.8947 11.4804 11.7072 11.2929C11.5196 11.1054 11.2653 11 11.0001 11H10.0001C10.0001 10.7348 9.89472 10.4804 9.70718 10.2929C9.51965 10.1054 9.26529 10 9.00008 10C8.73486 10 8.48051 10.1054 8.29297 10.2929C8.10543 10.4804 8.00008 10.7348 8.00008 11V11.05C7.3925 11.1734 6.85244 11.5181 6.48473 12.0173C6.11703 12.5164 5.94791 13.1344 6.01022 13.7512C6.07253 14.3681 6.36181 14.9398 6.82191 15.3553C7.28201 15.7709 7.8801 16.0006 8.50008 16H9.50008C9.63269 16 9.75986 16.0527 9.85363 16.1464C9.9474 16.2402 10.0001 16.3674 10.0001 16.5C10.0001 16.6326 9.9474 16.7598 9.85363 16.8536C9.75986 16.9473 9.63269 17 9.50008 17H7.00008C6.73486 17 6.48051 17.1054 6.29297 17.2929C6.10543 17.4804 6.00008 17.7348 6.00008 18C6.00008 18.2652 6.10543 18.5196 6.29297 18.7071C6.48051 18.8946 6.73486 19 7.00008 19H8.00008C8.00008 19.2652 8.10543 19.5196 8.29297 19.7071C8.48051 19.8946 8.73486 20 9.00008 20C9.26529 20 9.51965 19.8946 9.70718 19.7071C9.89472 19.5196 10.0001 19.2652 10.0001 19V18.95C10.6077 18.8266 11.1477 18.4819 11.5154 17.9827C11.8831 17.4836 12.0522 16.8656 11.9899 16.2488C11.9276 15.6319 11.6383 15.0602 11.1782 14.6447C10.7181 14.2291 10.1201 13.9994 9.50008 14H8.50008C8.36747 14 8.24029 13.9473 8.14652 13.8536C8.05276 13.7598 8.00008 13.6326 8.00008 13.5C8.00008 13.3674 8.05276 13.2402 8.14652 13.1464C8.24029 13.0527 8.36747 13 8.50008 13Z" fill="white"/>
</svg>
