<svg width="20" height="21" viewBox="0 0 20 21" fill="none" xmlns="http://www.w3.org/2000/svg">
<path d="M19.707 5.47104L14.707 0.47104C14.5195 0.28349 14.2652 0.178096 14 0.17804H1C0.734784 0.17804 0.48043 0.283396 0.292893 0.470933C0.105357 0.658469 0 0.912823 0 1.17804V19.178C0 19.4433 0.105357 19.6976 0.292893 19.8851C0.48043 20.0727 0.734784 20.178 1 20.178H19C19.2652 20.178 19.5196 20.0727 19.7071 19.8851C19.8946 19.6976 20 19.4433 20 19.178V6.17804C19.9999 5.91284 19.8946 5.65853 19.707 5.47104ZM6 18.178V11.178H14V18.178H6ZM18 18.178H16V10.178C16 9.91282 15.8946 9.65847 15.7071 9.47093C15.5196 9.2834 15.2652 9.17804 15 9.17804H5C4.73478 9.17804 4.48043 9.2834 4.29289 9.47093C4.10536 9.65847 4 9.91282 4 10.178V18.178H2V2.17804H13.5859L18 6.59214V18.178Z" fill="black"/>
<path d="M13 12.178H7V14.178H13V12.178Z" fill="black"/>
</svg>
