<svg width="28" height="20" viewBox="0 0 28 20" fill="none" xmlns="http://www.w3.org/2000/svg">
<path d="M0 16.9231C0 17.7392 0.324175 18.5218 0.90121 19.0988C1.47824 19.6759 2.26087 20 3.07692 20H24.6154C25.4314 20 26.2141 19.6759 26.7911 19.0988C27.3681 18.5218 27.6923 17.7392 27.6923 16.9231V13.8462H0V16.9231Z" fill="#FFCD05"/>
<path d="M0 7.17944H27.6923V13.8461H0V7.17944Z" fill="#ED1F24"/>
<path d="M24.6154 0H3.07692C2.26087 0 1.47824 0.336181 0.90121 0.934588C0.324175 1.53299 0 2.34461 0 3.19088L0 7.17949H27.6923V3.19088C27.6923 2.34461 27.3681 1.53299 26.7911 0.934588C26.2141 0.336181 25.4314 0 24.6154 0Z" fill="#141414"/>
</svg>
