<svg width="800" height="578" viewBox="0 0 800 578" fill="none" xmlns="http://www.w3.org/2000/svg">
<path d="M0 489C0 512.575 9.36505 535.184 26.035 551.854C42.7049 568.524 65.3141 577.889 88.8889 577.889H711.111C734.686 577.889 757.295 568.524 773.965 551.854C790.635 535.184 800 512.575 800 489V400.111H0V489Z" fill="#FFCD05"/>
<path d="M0 200.111H800V400.111H0V200.111Z" fill="#ED1F24"/>
<path d="M711.111 0.111084H88.8889C65.3141 0.111084 42.7049 9.47613 26.035 26.146C9.36505 42.8159 0 65.4252 0 89L0 200.111H800V89C800 65.4252 790.635 42.8159 773.965 26.146C757.295 9.47613 734.686 0.111084 711.111 0.111084Z" fill="#141414"/>
</svg>
