<svg width="800" height="579" viewBox="0 0 800 579" fill="none" xmlns="http://www.w3.org/2000/svg">
<path d="M800 489.778C800 513.353 790.635 535.962 773.965 552.632C757.295 569.302 734.686 578.667 711.111 578.667H88.8889C65.3141 578.667 42.7049 569.302 26.035 552.632C9.36505 535.962 0 513.353 0 489.778V89.7778C0 66.203 9.36505 43.5938 26.035 26.9239C42.7049 10.254 65.3141 0.888916 88.8889 0.888916H711.111C734.686 0.888916 757.295 10.254 773.965 26.9239C790.635 43.5938 800 66.203 800 89.7778V489.778Z" fill="#C60A1D"/>
<path d="M0 156.445H800V423.111H0V156.445Z" fill="#FFC400"/>
<path d="M200 267.556V334.222C200 351.903 207.024 368.86 219.526 381.363C232.029 393.865 248.986 400.889 266.667 400.889C284.348 400.889 301.305 393.865 313.807 381.363C326.31 368.86 333.333 351.903 333.333 334.222V267.556H200Z" fill="#EA596E"/>
<path d="M266.667 245.333H333.334V312H266.667V245.333Z" fill="#F4A2B2"/>
<path d="M200 245.333H266.667V312H200V245.333Z" fill="#DD2E44"/>
<path d="M266.667 245.333C303.486 245.333 333.333 230.41 333.333 212C333.333 193.591 303.486 178.667 266.667 178.667C229.848 178.667 200 193.591 200 212C200 230.41 229.848 245.333 266.667 245.333Z" fill="#EA596E"/>
<path d="M266.667 212C303.486 212 333.333 204.538 333.333 195.333C333.333 186.129 303.486 178.667 266.667 178.667C229.848 178.667 200 186.129 200 195.333C200 204.538 229.848 212 266.667 212Z" fill="#FFAC33"/>
<path d="M155.556 245.333H177.778V400.889H155.556V245.333ZM355.556 245.333H377.778V400.889H355.556V245.333Z" fill="#99AAB5"/>
<path d="M133.333 378.667H200V400.889H133.333V378.667ZM333.333 378.667H400V400.889H333.333V378.667ZM155.555 223.111H177.777V245.333H155.555V223.111ZM355.555 223.111H377.777V245.333H355.555V223.111Z" fill="#66757F"/>
</svg>
