<svg width="800" height="579" viewBox="0 0 800 579" fill="none" xmlns="http://www.w3.org/2000/svg">
<path d="M88.8889 0.777832C65.3141 0.777832 42.7049 10.1429 26.035 26.8128C9.36505 43.4827 0 66.0919 0 89.6667L0 489.667C0 513.242 9.36505 535.851 26.035 552.521C42.7049 569.191 65.3141 578.556 88.8889 578.556H266.667V0.777832H88.8889Z" fill="#141414"/>
<path d="M266.667 0.777832H533.334V578.556H266.667V0.777832Z" fill="#FEE833"/>
<path d="M711.111 0.777832H533.333V578.556H711.111C734.686 578.556 757.295 569.191 773.965 552.521C790.635 535.851 800 513.242 800 489.667V89.6667C800 66.0919 790.635 43.4827 773.965 26.8128C757.295 10.1429 734.686 0.777832 711.111 0.777832Z" fill="#EE232C"/>
</svg>
