<svg width="800" height="581" viewBox="0 0 800 581" fill="none" xmlns="http://www.w3.org/2000/svg">
<path d="M30.7334 557.755C46.4821 572.584 67.2969 580.784 88.889 580.665H711.111C760.2 580.665 800 540.712 800 480.281V290.666H388.889L30.7334 557.755Z" fill="#D7141A"/>
<path d="M711.111 0.666751H88.8889C67.2115 0.660973 46.287 8.64701 30.0889 23.1082L388.889 290.666H800V89.8973C800 66.2319 790.635 43.5358 773.965 26.8018C757.295 10.0678 734.686 0.666751 711.111 0.666751Z" fill="#EEEEEE"/>
<path d="M30.7333 557.755L388.889 290.666L30.0889 23.1082C20.6317 31.4535 13.0561 41.7274 7.86755 53.2446C2.67902 64.7617 -0.00314874 77.2571 2.77402e-06 89.8972V480.281C2.77402e-06 513.296 11.9333 540.132 30.7333 557.755Z" fill="#11457E"/>
</svg>
