<svg width="800" height="579" viewBox="0 0 800 579" fill="none" xmlns="http://www.w3.org/2000/svg">
<path d="M711.111 0.888916H88.8889C65.3141 0.888916 42.7049 10.254 26.035 26.9239C9.36505 43.5938 0 66.203 0 89.7778L0 289.778H800V89.7778C800 66.203 790.635 43.5938 773.965 26.9239C757.295 10.254 734.686 0.888916 711.111 0.888916Z" fill="#EEEEEE"/>
<path d="M0 489.778C0 513.353 9.36505 535.962 26.035 552.632C42.7049 569.302 65.3141 578.667 88.8889 578.667H711.111C734.686 578.667 757.295 569.302 773.965 552.632C790.635 535.962 800 513.353 800 489.778V289.778H0V489.778Z" fill="#DC143C"/>
</svg>
