<svg width="800" height="578" viewBox="0 0 800 578" fill="none" xmlns="http://www.w3.org/2000/svg">
<path d="M800 489C800 512.575 790.635 535.184 773.965 551.854C757.295 568.524 734.686 577.889 711.111 577.889H88.8889C65.3141 577.889 42.7049 568.524 26.035 551.854C9.36505 535.184 0 512.575 0 489V89C0 65.4252 9.36505 42.8159 26.035 26.146C42.7049 9.47613 65.3141 0.111084 88.8889 0.111084H711.111C734.686 0.111084 757.295 9.47613 773.965 26.146C790.635 42.8159 800 65.4252 800 89V489Z" fill="#DE2910"/>
<path d="M247.467 88.4889L263.822 96.4L276.911 83.8223L274.445 101.822L290.445 110.4L272.578 113.6L269.378 131.467L260.8 115.467L242.8 117.933L255.378 104.844L247.467 88.4889ZM351.134 153.844L343.222 170.178L355.8 183.289L337.822 180.8L329.245 196.822L326.045 178.933L308.156 175.733L324.178 167.156L321.689 149.178L334.8 161.756L351.134 153.844ZM329.867 237.822L335.822 254.978L353.978 255.356L339.511 266.311L344.778 283.711L329.867 273.333L314.956 283.711L320.2 266.311L305.734 255.356L323.889 254.978L329.867 237.822ZM247.467 310.711L263.822 318.622L276.911 306.044L274.445 324.044L290.445 332.622L272.578 335.822L269.378 353.689L260.8 337.689L242.8 340.156L255.378 327.067L247.467 310.711ZM155.556 132.356L176.2 191.711L239 193L188.934 230.956L207.134 291.089L155.556 255.2L103.978 291.089L122.178 230.956L72.1113 193L134.911 191.711L155.556 132.356Z" fill="#FFDE02"/>
</svg>
