<svg width="800" height="581" viewBox="0 0 800 581" fill="none" xmlns="http://www.w3.org/2000/svg">
<g clip-path="url(#clip0_1174_9988)">
<path d="M0 0.666748H800V580.667H0" fill="#B31942"/>
<path d="M0 67.5898H800ZM800 156.821H0ZM0 246.051H800ZM800 335.282H0ZM0 424.513H800ZM800 513.744H0Z" fill="black"/>
<path d="M0 67.5898H800M800 156.821H0M0 246.051H800M800 335.282H0M0 424.513H800M800 513.744H0" stroke="white" stroke-width="50"/>
<path d="M0 0.666748H320V312.974H0" fill="#0A3161"/>
<path d="M26.6666 14.0513L34.2816 46.3353L14.3452 26.3827H38.988L19.0516 46.3353L26.6666 14.0513Z" fill="white"/>
<path d="M26.6666 76.5127L34.2816 108.797L14.3452 88.8441H38.988L19.0516 108.797L26.6666 76.5127Z" fill="white"/>
<path d="M26.6666 138.974L34.2816 171.258L14.3452 151.306H38.988L19.0516 171.258L26.6666 138.974Z" fill="white"/>
<path d="M26.6666 201.436L34.2816 233.72L14.3452 213.767H38.988L19.0516 233.72L26.6666 201.436Z" fill="white"/>
<path d="M26.6666 263.897L34.2816 296.181L14.3452 276.229H38.988L19.0516 296.181L26.6666 263.897Z" fill="white"/>
<path d="M53.3331 45.282L60.9481 77.566L41.0117 57.6134H65.6545L45.7181 77.566L53.3331 45.282Z" fill="white"/>
<path d="M53.3331 107.743L60.9481 140.027L41.0117 120.075H65.6545L45.7181 140.027L53.3331 107.743Z" fill="white"/>
<path d="M53.3331 170.205L60.9481 202.489L41.0117 182.536H65.6545L45.7181 202.489L53.3331 170.205Z" fill="white"/>
<path d="M53.3331 232.667L60.9481 264.95L41.0117 244.998H65.6545L45.7181 264.95L53.3331 232.667Z" fill="white"/>
<path d="M80.0001 14.0513L87.6151 46.3353L67.6787 26.3827H92.3215L72.3851 46.3353L80.0001 14.0513Z" fill="white"/>
<path d="M80.0001 76.5127L87.6151 108.797L67.6787 88.8441H92.3215L72.3851 108.797L80.0001 76.5127Z" fill="white"/>
<path d="M80.0001 138.974L87.6151 171.258L67.6787 151.306H92.3215L72.3851 171.258L80.0001 138.974Z" fill="white"/>
<path d="M80.0001 201.436L87.6151 233.72L67.6787 213.767H92.3215L72.3851 233.72L80.0001 201.436Z" fill="white"/>
<path d="M80.0001 263.897L87.6151 296.181L67.6787 276.229H92.3215L72.3851 296.181L80.0001 263.897Z" fill="white"/>
<path d="M106.667 45.282L114.282 77.566L94.3452 57.6134H118.988L99.0516 77.566L106.667 45.282Z" fill="white"/>
<path d="M106.667 107.743L114.282 140.027L94.3452 120.075H118.988L99.0516 140.027L106.667 107.743Z" fill="white"/>
<path d="M106.667 170.205L114.282 202.489L94.3452 182.536H118.988L99.0516 202.489L106.667 170.205Z" fill="white"/>
<path d="M106.667 232.667L114.282 264.95L94.3452 244.998H118.988L99.0516 264.95L106.667 232.667Z" fill="white"/>
<path d="M133.333 14.0513L140.948 46.3353L121.012 26.3827H145.654L125.718 46.3353L133.333 14.0513Z" fill="white"/>
<path d="M133.333 76.5127L140.948 108.797L121.012 88.8441H145.654L125.718 108.797L133.333 76.5127Z" fill="white"/>
<path d="M133.333 138.974L140.948 171.258L121.012 151.306H145.654L125.718 171.258L133.333 138.974Z" fill="white"/>
<path d="M133.333 201.436L140.948 233.72L121.012 213.767H145.654L125.718 233.72L133.333 201.436Z" fill="white"/>
<path d="M133.333 263.897L140.948 296.181L121.012 276.229H145.654L125.718 296.181L133.333 263.897Z" fill="white"/>
<path d="M160 45.282L167.615 77.566L147.678 57.6134H172.321L152.385 77.566L160 45.282Z" fill="white"/>
<path d="M160 107.743L167.615 140.027L147.678 120.075H172.321L152.385 140.027L160 107.743Z" fill="white"/>
<path d="M160 170.205L167.615 202.489L147.678 182.536H172.321L152.385 202.489L160 170.205Z" fill="white"/>
<path d="M160 232.667L167.615 264.95L147.678 244.998H172.321L152.385 264.95L160 232.667Z" fill="white"/>
<path d="M186.667 14.0513L194.282 46.3353L174.345 26.3827H198.988L179.052 46.3353L186.667 14.0513Z" fill="white"/>
<path d="M186.667 76.5127L194.282 108.797L174.345 88.8441H198.988L179.052 108.797L186.667 76.5127Z" fill="white"/>
<path d="M186.667 138.974L194.282 171.258L174.345 151.306H198.988L179.052 171.258L186.667 138.974Z" fill="white"/>
<path d="M186.667 201.436L194.282 233.72L174.345 213.767H198.988L179.052 233.72L186.667 201.436Z" fill="white"/>
<path d="M186.667 263.897L194.282 296.181L174.345 276.229H198.988L179.052 296.181L186.667 263.897Z" fill="white"/>
<path d="M213.333 45.282L220.948 77.566L201.012 57.6134H225.654L205.718 77.566L213.333 45.282Z" fill="white"/>
<path d="M213.333 107.743L220.948 140.027L201.012 120.075H225.654L205.718 140.027L213.333 107.743Z" fill="white"/>
<path d="M213.333 170.205L220.948 202.489L201.012 182.536H225.654L205.718 202.489L213.333 170.205Z" fill="white"/>
<path d="M213.333 232.667L220.948 264.95L201.012 244.998H225.654L205.718 264.95L213.333 232.667Z" fill="white"/>
<path d="M240 14.0513L247.615 46.3353L227.679 26.3827H252.321L232.385 46.3353L240 14.0513Z" fill="white"/>
<path d="M240 76.5127L247.615 108.797L227.679 88.8441H252.321L232.385 108.797L240 76.5127Z" fill="white"/>
<path d="M240 138.974L247.615 171.258L227.679 151.306H252.321L232.385 171.258L240 138.974Z" fill="white"/>
<path d="M240 201.436L247.615 233.72L227.679 213.767H252.321L232.385 233.72L240 201.436Z" fill="white"/>
<path d="M240 263.897L247.615 296.181L227.679 276.229H252.321L232.385 296.181L240 263.897Z" fill="white"/>
<path d="M266.667 45.282L274.282 77.566L254.345 57.6134H278.988L259.052 77.566L266.667 45.282Z" fill="white"/>
<path d="M266.667 107.743L274.282 140.027L254.345 120.075H278.988L259.052 140.027L266.667 107.743Z" fill="white"/>
<path d="M266.667 170.205L274.282 202.489L254.345 182.536H278.988L259.052 202.489L266.667 170.205Z" fill="white"/>
<path d="M266.667 232.667L274.282 264.95L254.345 244.998H278.988L259.052 264.95L266.667 232.667Z" fill="white"/>
<path d="M293.333 14.0513L300.948 46.3353L281.012 26.3827H305.654L285.718 46.3353L293.333 14.0513Z" fill="white"/>
<path d="M293.333 76.5127L300.948 108.797L281.012 88.8441H305.654L285.718 108.797L293.333 76.5127Z" fill="white"/>
<path d="M293.333 138.974L300.948 171.258L281.012 151.306H305.654L285.718 171.258L293.333 138.974Z" fill="white"/>
<path d="M293.333 201.436L300.948 233.72L281.012 213.767H305.654L285.718 233.72L293.333 201.436Z" fill="white"/>
<path d="M293.333 263.897L300.948 296.181L281.012 276.229H305.654L285.718 296.181L293.333 263.897Z" fill="white"/>
</g>
<defs>
<clipPath id="clip0_1174_9988">
<rect y="0.666748" width="800" height="580" rx="90" fill="white"/>
</clipPath>
</defs>
</svg>
